<svg width="556" height="439" viewBox="0 0 556 439" fill="none" xmlns="http://www.w3.org/2000/svg">
<path d="M195.65 343.2C175.35 343.2 157.267 338.183 141.4 328.15C125.533 318.117 113.05 303.65 103.95 284.75C95.0833 265.617 90.65 242.867 90.65 216.5C90.65 190.133 95.0833 167.5 103.95 148.6C113.05 129.467 125.533 114.883 141.4 104.85C157.267 94.8167 175.35 89.8 195.65 89.8C215.95 89.8 234.033 94.8167 249.9 104.85C265.767 114.883 278.133 129.467 287 148.6C296.1 167.5 300.65 190.133 300.65 216.5C300.65 242.867 296.1 265.617 287 284.75C278.133 303.65 265.767 318.117 249.9 328.15C234.033 338.183 215.95 343.2 195.65 343.2ZM195.65 295.25C210.583 295.25 222.25 288.833 230.65 276C239.283 263.167 243.6 243.333 243.6 216.5C243.6 189.667 239.283 169.833 230.65 157C222.25 144.167 210.583 137.75 195.65 137.75C180.95 137.75 169.283 144.167 160.65 157C152.25 169.833 148.05 189.667 148.05 216.5C148.05 243.333 152.25 263.167 160.65 276C169.283 288.833 180.95 295.25 195.65 295.25ZM552.549 287.55H512.649V339H457.349V287.55H325.399V249.4L440.899 94H500.399L393.299 241.35H459.099V195.5H512.649V241.35H552.549V287.55Z" fill="url(#paint0_linear)"/>
<g clip-path="url(#clip0)">
<path d="M60.2376 358.219C59.763 359.013 59.0155 359.603 58.1368 359.879C57.2581 360.154 56.3094 360.096 55.4709 359.714C54.6323 359.332 53.9623 358.654 53.5878 357.808C53.2134 356.962 53.1607 356.007 53.4397 355.125L38.9244 325.121L45.8725 320.882L58.4083 352.752C58.4561 352.771 58.5034 352.79 58.5499 352.811C58.5964 352.832 58.6427 352.853 58.6888 352.875L58.8277 352.945C58.8742 352.969 58.9194 352.995 58.963 353.023C59.8168 353.541 60.4309 354.38 60.6703 355.354C60.9098 356.328 60.755 357.358 60.24 358.217L60.2376 358.219Z" fill="#FEB8B8"/>
<path d="M41.6953 336.69L52.0066 334.031C52.0066 334.031 51.6698 333.265 51.1226 331.996C50.5755 330.727 49.811 328.957 48.951 326.95C48.091 324.943 47.137 322.697 46.2048 320.479C45.2726 318.26 44.3647 316.069 43.603 314.169C42.8413 312.269 41.9713 311.13 41.1009 310.494C40.3794 309.942 39.4708 309.699 38.5723 309.818C37.8741 309.922 37.2066 310.178 36.616 310.567C36.3363 310.742 36.0734 310.943 35.8306 311.167L33.4399 315.541L41.6953 336.69Z" fill="#CCCCCC"/>
<path d="M31.4482 417.503L37.7586 417.478L35.7237 434.069L31.4482 434.091V417.503Z" fill="#FEB8B8"/>
<path d="M30.358 438.264L44.1366 438.191V438.016C44.1365 437.661 44.1016 437.306 44.0325 436.957C43.897 436.268 43.627 435.614 43.2381 435.031C42.8431 434.44 42.3369 433.933 41.748 433.539C41.1669 433.15 40.5149 432.881 39.8298 432.748C39.4825 432.681 39.1295 432.648 38.7758 432.65L30.3566 432.692L30.358 438.264Z" fill="#2F2E41"/>
<path d="M51.6534 417.425L57.9458 417.4L55.9175 433.968L51.6538 433.99L51.6534 417.425Z" fill="#FEB8B8"/>
<path d="M50.5665 438.157L64.309 438.084V437.91C64.3087 437.554 64.2738 437.2 64.2048 436.852C64.0697 436.164 63.8005 435.51 63.4125 434.928C63.0188 434.338 62.5137 433.832 61.9259 433.438C61.3465 433.05 60.6963 432.782 60.0129 432.649C59.6665 432.582 59.3144 432.549 58.9617 432.551L50.5658 432.592L50.5665 438.157Z" fill="#2F2E41"/>
<path d="M51.9208 349.615L62.5019 389.346L58.6287 427.43L50.0533 427.668L51.9204 393.28L41.222 376.118L38.9018 427.902L31.1218 427.349L26.7955 382.825C25.3257 379.349 24.2478 375.717 23.582 371.999C23.0587 369.081 22.8042 366.12 22.8217 363.154C22.8305 361.158 22.9829 359.165 23.2779 357.19C23.3832 356.455 23.5259 355.725 23.7053 355.004L26.8601 351.786L51.9208 349.615Z" fill="#2F2E41"/>
<path d="M37.9016 356.261C39.6809 356.261 41.3508 356.203 42.8663 356.09C44.4129 355.983 45.9513 355.779 47.4727 355.48C48.768 355.236 50.0293 354.837 51.2296 354.29C52.1958 353.87 53.0359 353.203 53.6664 352.355L53.7387 352.25L50.8466 333.312L47.7279 312.019C47.5229 310.61 46.81 309.325 45.7249 308.411C44.6397 307.496 43.2581 307.015 41.8431 307.059L32.0755 307.36C30.6243 307.404 29.2502 308.027 28.2555 309.091C27.2608 310.156 26.7269 311.574 26.7714 313.034C26.773 313.089 26.7756 313.145 26.7789 313.2L28.0611 334.376L23.3314 355.265L23.6664 355.313C23.8011 355.33 24.3202 355.4 25.1333 355.491C26.196 355.612 27.2813 355.72 28.3586 355.813C29.8827 355.946 31.3746 356.05 32.7918 356.123C34.5877 356.214 36.3104 356.259 37.9016 356.261Z" fill="#EB9B9B"/>
<path d="M43.3218 303.296H43.3294C43.7433 303.296 44.14 303.13 44.4324 302.835C44.7248 302.54 44.889 302.141 44.889 301.724V292.963C44.8905 291.393 44.5784 289.839 43.971 288.393C42.7814 285.571 40.5552 283.32 37.7565 282.109C35.9867 281.345 34.0562 281.035 32.1381 281.206C30.2199 281.377 28.3738 282.024 26.7651 283.09C25.1565 284.155 23.8355 285.605 22.9204 287.309C22.0054 289.014 21.5249 290.921 21.5219 292.858V301.634C21.5216 301.845 21.5636 302.054 21.6455 302.248C21.8058 302.628 22.1055 302.93 22.4822 303.092C22.6755 303.175 22.8834 303.218 23.0936 303.219L43.3218 303.296Z" fill="#2F2E41"/>
<path d="M27.9309 289.958C27.1161 291.456 26.7605 293.162 26.9092 294.863C27.0578 296.564 27.704 298.182 28.7661 299.513C29.8282 300.844 31.2586 301.829 32.8766 302.343C34.4946 302.856 36.2276 302.876 37.8568 302.4C38.9358 302.088 39.9426 301.564 40.8188 300.857C41.6949 300.151 42.4231 299.277 42.9611 298.286C43.7739 296.789 44.1281 295.084 43.979 293.385C43.8299 291.686 43.1842 290.069 42.1233 288.739C41.0624 287.409 39.6338 286.424 38.0176 285.91C36.4015 285.395 34.6701 285.374 33.0417 285.848C31.9619 286.159 30.9542 286.682 30.077 287.388C29.1998 288.093 28.4705 288.967 27.9316 289.959L27.9309 289.958Z" fill="#FEB8B8"/>
<path d="M47.6511 293.676C47.6522 292.435 47.4052 291.206 46.9248 290.062C45.9844 287.831 44.2243 286.051 42.0115 285.094C40.8762 284.604 39.6547 284.35 38.4196 284.345L36.6767 284.336H36.618C34.1806 284.338 31.8436 285.313 30.1211 287.048C28.3987 288.784 27.4318 291.136 27.4333 293.589V293.763L31.1204 293.778L32.3775 290.244L32.6289 293.785L34.5332 293.794L35.1672 292.012L35.2942 293.798L47.6494 293.853L47.6511 293.676Z" fill="#2F2E41"/>
<path d="M62.4953 312.108C63.0628 312.249 63.5934 312.511 64.0506 312.877C64.4078 313.161 64.7133 313.506 64.9533 313.896C65.427 314.667 65.6357 315.573 65.5473 316.476C65.5027 316.931 65.3798 317.376 65.1842 317.789C64.943 318.305 64.596 318.763 64.1659 319.133C63.7359 319.504 63.2326 319.778 62.6894 319.938C62.1462 320.099 61.5753 320.141 61.0146 320.063C60.4538 319.985 59.9158 319.788 59.4362 319.486C59.4008 319.462 59.3661 319.439 59.3321 319.416C59.2981 319.392 59.264 319.368 59.23 319.343C59.1964 319.319 59.1634 319.294 59.1307 319.268C59.0981 319.243 59.0658 319.217 59.0338 319.191L38.689 326.477C38.0629 326.701 37.3815 326.714 36.7473 326.515C36.1131 326.315 35.5604 325.914 35.1724 325.371L30.3469 318.651L36.1795 314.7L39.2389 318.197L57.859 314.47C57.8794 314.422 57.9004 314.373 57.9222 314.326C57.9439 314.278 57.9671 314.23 57.9916 314.182C58.0147 314.135 58.0395 314.088 58.0659 314.04C58.0923 313.992 58.1192 313.946 58.1468 313.9C58.5911 313.178 59.2511 312.616 60.0323 312.294C60.8135 311.973 61.6759 311.908 62.4959 312.109L62.4953 312.108Z" fill="#FEB8B8"/>
<path d="M38.9109 315.991C38.3023 315.226 37.4527 314.234 36.5868 313.25C35.721 312.266 34.845 311.29 34.1829 310.56C33.5209 309.83 33.0758 309.347 33.0758 309.347C32.4648 308.418 31.553 307.73 30.4952 307.4C29.4373 307.071 28.2987 307.12 27.2726 307.539C26.2466 307.958 25.3965 308.722 24.8666 309.7C24.3368 310.679 24.1599 311.811 24.366 312.906C24.4838 313.537 24.727 314.136 25.0812 314.67C25.0812 314.67 25.745 315.543 26.7477 316.848C27.7503 318.153 29.0901 319.889 30.4424 321.615C31.7947 323.342 33.1601 325.059 34.2128 326.327C35.2655 327.595 36.0067 328.414 36.1108 328.344L39.783 317.36C39.8868 317.29 39.5195 316.755 38.9109 315.991Z" fill="#EB9B9B"/>
<path d="M36.7309 303.02C36.7887 303.303 36.7663 303.597 36.6664 303.868C36.6161 304.007 36.5468 304.138 36.4605 304.257C36.3866 304.359 36.3011 304.452 36.2056 304.533C35.9227 304.774 35.5637 304.905 35.1933 304.903C35.1701 304.903 35.147 304.903 35.1238 304.901C35.1007 304.9 35.0775 304.898 35.0544 304.896C35.0312 304.895 35.0081 304.892 34.9849 304.889C34.9618 304.886 34.9387 304.882 34.9155 304.878L33.607 304.638L31.8044 300.764V304.313L25.8544 303.235V288.174L35.8289 288.222L35.5824 288.51C34.7639 289.477 34.2265 290.653 34.0292 291.907C33.8356 293.178 33.86 294.472 34.101 295.735C34.3354 297.012 34.691 298.263 35.1631 299.472C35.5757 300.543 36.0494 301.589 36.5816 302.606C36.6504 302.736 36.7007 302.875 36.7309 303.02Z" fill="#2F2E41"/>
<path d="M256.621 439H3.05176e-05V438.265H257L256.621 439Z" fill="#CACACA"/>
<path d="M188.602 248.997H187.248V211.628C187.248 205.892 184.983 200.391 180.952 196.335C176.92 192.279 171.453 190 165.752 190H87.0629C84.2401 190 81.4448 190.559 78.8368 191.646C76.2288 192.733 73.8591 194.326 71.863 196.334C69.8669 198.343 68.2835 200.727 67.2032 203.351C66.1229 205.975 65.5668 208.787 65.5668 211.628V416.637C65.5668 419.477 66.1228 422.289 67.203 424.913C68.2833 427.537 69.8667 429.922 71.8628 431.93C73.8588 433.938 76.2285 435.531 78.8365 436.618C81.4445 437.705 84.2397 438.265 87.0626 438.265H165.751C171.452 438.265 176.919 435.986 180.951 431.93C184.982 427.874 187.247 422.373 187.247 416.637V275.597H188.601L188.602 248.997Z" fill="#3F3D56"/>
<path d="M182.864 210.179V418.085C182.863 422.434 181.146 426.605 178.09 429.68C175.034 432.756 170.889 434.484 166.566 434.486H86.263C81.9388 434.486 77.7915 432.759 74.7332 429.683C71.6749 426.607 69.9561 422.435 69.9548 418.085V210.179C69.9561 205.829 71.6748 201.657 74.733 198.581C77.7912 195.506 81.9383 193.778 86.2623 193.779H96.0035C95.5252 194.962 95.3432 196.246 95.4734 197.517C95.6036 198.787 96.042 200.007 96.7502 201.067C97.4585 202.127 98.4147 202.997 99.535 203.598C100.655 204.2 101.905 204.515 103.175 204.517H148.957C150.227 204.515 151.477 204.2 152.597 203.598C153.717 202.997 154.674 202.127 155.382 201.067C156.09 200.007 156.529 198.787 156.659 197.517C156.789 196.246 156.607 194.962 156.129 193.779H166.563C170.886 193.779 175.031 195.507 178.087 198.582C181.144 201.657 182.862 205.827 182.864 210.176V210.179Z" fill="white"/>
<path d="M127.27 293.354C118.127 293.358 109.358 289.707 102.89 283.205C96.4222 276.703 92.7863 267.882 92.7821 258.683V258.652C92.7821 258.58 92.7821 258.503 92.7863 258.43C92.8904 239.428 108.362 223.953 127.27 223.953C136.417 223.952 145.189 227.608 151.657 234.115C158.126 240.622 161.76 249.448 161.76 258.651C161.761 267.854 158.128 276.68 151.66 283.188C145.193 289.696 136.421 293.353 127.274 293.353H127.27V293.354ZM127.27 224.683C118.357 224.703 109.811 228.261 103.49 234.585C97.1691 240.908 93.5836 249.486 93.5126 258.454C93.5088 258.531 93.5088 258.594 93.5088 258.653C93.5079 265.372 95.4875 271.941 99.1971 277.528C102.907 283.116 108.18 287.471 114.349 290.043C120.519 292.615 127.308 293.289 133.858 291.979C140.409 290.669 146.426 287.434 151.148 282.683C155.871 277.932 159.088 271.879 160.392 265.289C161.695 258.699 161.028 251.868 158.473 245.659C155.918 239.451 151.59 234.145 146.038 230.411C140.486 226.677 133.958 224.684 127.279 224.683H127.27Z" fill="#CCCCCC"/>
<path d="M162.933 329.838H91.5745C91.2242 329.837 90.8883 329.697 90.6406 329.448C90.3929 329.199 90.2535 328.861 90.2532 328.508V310.699C90.2536 310.346 90.393 310.008 90.6407 309.759C90.8884 309.51 91.2242 309.37 91.5745 309.369H162.933C163.284 309.37 163.62 309.51 163.867 309.759C164.115 310.008 164.254 310.346 164.255 310.699V328.509C164.254 328.861 164.115 329.199 163.867 329.448C163.62 329.697 163.284 329.838 162.933 329.838V329.838ZM91.5745 309.901C91.3643 309.901 91.1627 309.985 91.014 310.135C90.8654 310.284 90.7818 310.487 90.7816 310.699V328.509C90.7818 328.72 90.8654 328.923 91.014 329.072C91.1627 329.222 91.3643 329.306 91.5745 329.306H162.933C163.144 329.306 163.345 329.222 163.494 329.072C163.643 328.923 163.726 328.72 163.726 328.509V310.699C163.726 310.487 163.643 310.284 163.494 310.135C163.345 309.985 163.144 309.901 162.933 309.901H91.5745Z" fill="#E6E6E6"/>
<path d="M100.825 325.187C103.89 325.187 106.375 322.687 106.375 319.603C106.375 316.519 103.89 314.019 100.825 314.019C97.7594 314.019 95.2745 316.519 95.2745 319.603C95.2745 322.687 97.7594 325.187 100.825 325.187Z" fill="#CCCCCC"/>
<path d="M113.643 315.881C113.397 315.881 113.162 315.979 112.989 316.153C112.815 316.328 112.718 316.565 112.718 316.811C112.718 317.058 112.815 317.295 112.989 317.47C113.162 317.644 113.397 317.742 113.643 317.742H157.251C157.496 317.752 157.735 317.663 157.915 317.495C158.095 317.327 158.201 317.094 158.211 316.848C158.22 316.601 158.132 316.36 157.965 316.179C157.798 315.998 157.567 315.891 157.321 315.882C157.308 315.881 157.294 315.881 157.281 315.881H113.643V315.881Z" fill="#E6E6E6"/>
<path d="M113.643 321.464C113.397 321.464 113.162 321.562 112.989 321.737C112.815 321.912 112.718 322.148 112.718 322.395C112.718 322.642 112.815 322.879 112.989 323.053C113.162 323.228 113.397 323.326 113.643 323.326H157.251C157.496 323.335 157.735 323.246 157.915 323.079C158.095 322.911 158.201 322.678 158.211 322.431C158.22 322.185 158.132 321.944 157.965 321.763C157.798 321.582 157.567 321.475 157.321 321.465C157.308 321.465 157.294 321.465 157.281 321.465H113.643V321.464Z" fill="#E6E6E6"/>
<path d="M162.933 359.62H91.5745C91.2242 359.62 90.8883 359.48 90.6406 359.231C90.3929 358.981 90.2535 358.643 90.2532 358.291V340.481C90.2536 340.129 90.393 339.791 90.6407 339.542C90.8884 339.292 91.2242 339.152 91.5745 339.152H162.933C163.284 339.152 163.62 339.292 163.867 339.542C164.115 339.791 164.254 340.129 164.255 340.481V358.291C164.254 358.644 164.115 358.982 163.867 359.231C163.619 359.48 163.284 359.62 162.933 359.62ZM91.5745 339.683C91.3643 339.684 91.1627 339.768 91.014 339.917C90.8654 340.067 90.7818 340.27 90.7816 340.481V358.291C90.7818 358.503 90.8654 358.706 91.014 358.855C91.1627 359.005 91.3643 359.089 91.5745 359.089H162.933C163.144 359.089 163.345 359.005 163.494 358.855C163.643 358.706 163.726 358.503 163.726 358.291V340.481C163.726 340.27 163.643 340.067 163.494 339.917C163.345 339.768 163.144 339.684 162.933 339.683H91.5745Z" fill="#E6E6E6"/>
<path d="M100.825 354.97C103.89 354.97 106.375 352.47 106.375 349.386C106.375 346.302 103.89 343.802 100.825 343.802C97.7594 343.802 95.2745 346.302 95.2745 349.386C95.2745 352.47 97.7594 354.97 100.825 354.97Z" fill="#CCCCCC"/>
<path d="M113.643 345.662C113.397 345.662 113.162 345.76 112.989 345.934C112.815 346.109 112.718 346.346 112.718 346.593C112.718 346.839 112.815 347.076 112.989 347.251C113.162 347.425 113.397 347.523 113.643 347.523H157.251C157.493 347.522 157.724 347.425 157.896 347.254C158.068 347.083 158.167 346.851 158.171 346.608C158.174 346.364 158.084 346.129 157.917 345.952C157.751 345.776 157.523 345.672 157.281 345.662H113.643V345.662Z" fill="#E6E6E6"/>
<path d="M113.643 351.247C113.397 351.247 113.162 351.345 112.989 351.52C112.815 351.694 112.718 351.931 112.718 352.178C112.718 352.425 112.815 352.661 112.989 352.836C113.162 353.011 113.397 353.109 113.643 353.109H157.251C157.493 353.107 157.724 353.011 157.896 352.84C158.068 352.668 158.167 352.436 158.171 352.193C158.174 351.95 158.084 351.714 157.917 351.538C157.751 351.361 157.523 351.257 157.281 351.247H113.643V351.247Z" fill="#E6E6E6"/>
<path d="M162.933 389.402H91.5745C91.2242 389.402 90.8883 389.262 90.6406 389.012C90.3929 388.763 90.2535 388.425 90.2532 388.073V370.263C90.2536 369.911 90.393 369.573 90.6407 369.324C90.8884 369.074 91.2242 368.934 91.5745 368.934H162.933C163.284 368.934 163.62 369.074 163.867 369.324C164.115 369.573 164.254 369.911 164.255 370.263V388.073C164.254 388.426 164.115 388.763 163.867 389.013C163.62 389.262 163.284 389.402 162.933 389.403V389.402ZM91.5745 369.465C91.3643 369.466 91.1627 369.55 91.014 369.699C90.8654 369.849 90.7818 370.052 90.7816 370.263V388.073C90.7818 388.285 90.8654 388.487 91.014 388.637C91.1627 388.787 91.3643 388.871 91.5745 388.871H162.933C163.144 388.871 163.345 388.787 163.494 388.637C163.643 388.487 163.726 388.285 163.726 388.073V370.263C163.726 370.052 163.643 369.849 163.494 369.699C163.345 369.55 163.144 369.466 162.933 369.465H91.5745Z" fill="#E6E6E6"/>
<path d="M100.825 384.753C103.89 384.753 106.375 382.253 106.375 379.169C106.375 376.085 103.89 373.585 100.825 373.585C97.7594 373.585 95.2745 376.085 95.2745 379.169C95.2745 382.253 97.7594 384.753 100.825 384.753Z" fill="#CCCCCC"/>
<path d="M113.643 375.445C113.397 375.445 113.162 375.543 112.989 375.718C112.815 375.892 112.718 376.129 112.718 376.376C112.718 376.623 112.815 376.859 112.989 377.034C113.162 377.209 113.397 377.307 113.643 377.307H157.251C157.496 377.316 157.735 377.227 157.915 377.059C158.095 376.892 158.201 376.659 158.211 376.412C158.22 376.165 158.132 375.925 157.965 375.744C157.798 375.563 157.567 375.456 157.321 375.446C157.308 375.446 157.294 375.445 157.281 375.445H113.643V375.445Z" fill="#E6E6E6"/>
<path d="M113.643 381.029C113.397 381.029 113.162 381.128 112.989 381.302C112.815 381.477 112.718 381.713 112.718 381.96C112.718 382.207 112.815 382.444 112.989 382.618C113.162 382.793 113.397 382.891 113.643 382.891H157.251C157.372 382.896 157.493 382.876 157.607 382.834C157.721 382.791 157.826 382.727 157.915 382.644C158.004 382.561 158.076 382.461 158.127 382.35C158.177 382.239 158.206 382.119 158.211 381.996C158.215 381.874 158.196 381.752 158.154 381.638C158.112 381.523 158.047 381.418 157.965 381.328C157.882 381.238 157.783 381.166 157.673 381.115C157.562 381.064 157.443 381.035 157.321 381.03C157.308 381.03 157.294 381.03 157.281 381.03H113.643V381.029Z" fill="#E6E6E6"/>
<path d="M84.4934 341.071H97.6492C98.472 334.962 96.6566 329.259 97.6492 325.187H84.4934C82.0166 330.482 82.0166 335.777 84.4934 341.071Z" fill="#EB9B9B"/>
<path d="M169.904 371.723H156.748C157.241 365.615 158.831 359.912 156.748 355.839H169.904C172.381 361.133 172.381 366.428 169.904 371.723Z" fill="#007AFF"/>
<path d="M145.569 402.498H132.413C132.907 396.39 134.496 390.687 132.413 386.614H145.569C148.046 391.908 148.046 397.203 145.569 402.498Z" fill="#007AFF"/>
<path d="M144.895 288.583C139.487 291.884 133.243 293.536 126.921 293.338C120.598 293.14 114.468 291.102 109.274 287.469C110.364 285.163 112.08 283.216 114.224 281.851C116.369 280.487 118.854 279.762 121.391 279.76H132.313C135.055 279.76 137.732 280.606 139.982 282.183C142.232 283.761 143.947 285.995 144.896 288.584L144.895 288.583Z" fill="#007AFF"/>
<path d="M112.372 256.726C114.024 251.43 117.781 246.572 122.975 244.78C128.17 242.988 137.234 244.663 139.684 249.633C143.214 256.797 141.628 265.569 139.756 273.347C138.78 273.295 137.794 273.254 136.805 273.217L135.407 268.529V273.171C127.694 272.931 119.665 273.081 111.631 273.236C110.912 267.731 110.72 262.023 112.372 256.726Z" fill="#2F2E41"/>
<path d="M123.691 273.777C130.223 273.777 135.519 268.449 135.519 261.876C135.519 255.304 130.223 249.976 123.691 249.976C117.159 249.976 111.864 255.304 111.864 261.876C111.864 268.449 117.159 273.777 123.691 273.777Z" fill="#FEB8B8"/>
<path d="M115.976 247.539C118.117 246.226 120.569 245.515 123.076 245.482C125.583 245.449 128.053 246.094 130.228 247.35C132.402 248.606 134.202 250.426 135.437 252.621C136.673 254.816 137.3 257.305 137.253 259.827C131.025 260.116 124.482 260.191 117.849 260.204L116.28 256.343L115.356 260.206C113.334 260.206 111.309 260.203 109.28 260.198C109.197 257.683 109.772 255.19 110.947 252.968C112.122 250.747 113.857 248.875 115.976 247.539Z" fill="#2F2E41"/>
<path d="M234.099 427.764C234.006 431.252 233.426 434.709 232.374 438.034C232.35 438.111 232.325 438.187 232.3 438.264H225.862C225.869 438.194 225.876 438.118 225.883 438.034C226.312 433.069 228.787 402.852 225.828 397.685C226.087 398.104 234.597 411.988 234.099 427.764Z" fill="black"/>
<path d="M233.066 437.783C232.954 437.944 232.836 438.106 232.716 438.265H222.618C222.694 438.127 222.783 437.966 222.886 437.783C224.554 434.753 229.492 425.697 234.076 416.304C239.003 406.213 243.522 395.739 243.141 391.948C243.258 392.803 246.666 418.867 233.066 437.783Z" fill="black"/>
</g>
<defs>
<linearGradient id="paint0_linear" x1="316.5" y1="0" x2="316.5" y2="427" gradientUnits="userSpaceOnUse">
<stop stop-opacity="0.39"/>
<stop offset="1" stop-color="white" stop-opacity="0"/>
</linearGradient>
<clipPath id="clip0">
<rect width="257" height="249" fill="white" transform="translate(0 190)"/>
</clipPath>
</defs>
</svg>
