<svg width="501" height="427" viewBox="0 0 501 427" fill="none" xmlns="http://www.w3.org/2000/svg">
<path d="M177.65 343.2C157.35 343.2 139.267 338.183 123.4 328.15C107.533 318.117 95.05 303.65 85.95 284.75C77.0833 265.617 72.65 242.867 72.65 216.5C72.65 190.133 77.0833 167.5 85.95 148.6C95.05 129.467 107.533 114.883 123.4 104.85C139.267 94.8167 157.35 89.8 177.65 89.8C197.95 89.8 216.033 94.8167 231.9 104.85C247.767 114.883 260.133 129.467 269 148.6C278.1 167.5 282.65 190.133 282.65 216.5C282.65 242.867 278.1 265.617 269 284.75C260.133 303.65 247.767 318.117 231.9 328.15C216.033 338.183 197.95 343.2 177.65 343.2ZM177.65 295.25C192.583 295.25 204.25 288.833 212.65 276C221.283 263.167 225.6 243.333 225.6 216.5C225.6 189.667 221.283 169.833 212.65 157C204.25 144.167 192.583 137.75 177.65 137.75C162.95 137.75 151.283 144.167 142.65 157C134.25 169.833 130.05 189.667 130.05 216.5C130.05 243.333 134.25 263.167 142.65 276C151.283 288.833 162.95 295.25 177.65 295.25ZM491.198 292.8V339H306.048V302.25L400.548 213C410.581 203.433 417.348 195.267 420.848 188.5C424.348 181.5 426.098 174.617 426.098 167.85C426.098 158.05 422.715 150.583 415.948 145.45C409.415 140.083 399.731 137.4 386.898 137.4C376.165 137.4 366.481 139.5 357.848 143.7C349.215 147.667 341.981 153.733 336.148 161.9L294.848 135.3C304.415 121.067 317.598 109.983 334.398 102.05C351.198 93.8833 370.448 89.8 392.148 89.8C410.348 89.8 426.215 92.8333 439.748 98.9C453.515 104.733 464.131 113.133 471.598 124.1C479.298 134.833 483.148 147.55 483.148 162.25C483.148 175.55 480.348 188.033 474.748 199.7C469.148 211.367 458.298 224.667 442.198 239.6L385.848 292.8H491.198Z" fill="url(#paint0_linear)"/>
<g clip-path="url(#clip0)">
<path d="M165.589 207.812C165.513 217.345 164.884 226.863 163.703 236.306C163.662 236.638 163.617 236.97 163.575 237.301L83.0331 236.802C82.7966 236.473 82.5638 236.14 82.3383 235.802C81.5864 234.686 80.8816 233.538 80.2346 232.351C77.125 226.629 75.7014 219.931 77.128 215.31L77.1536 215.238C77.4615 214.226 77.9468 213.291 78.5815 212.488C81.8341 208.429 88.4106 209.106 94.3786 212.382C89.0257 205.887 84.7633 197.691 84.4395 190.376C84.1219 183.241 87.4879 178.143 91.1388 173.812C91.2586 173.668 91.3784 173.529 91.4981 173.39C91.5563 173.318 91.6179 173.251 91.6759 173.179C94.5243 169.878 97.8451 166.624 102.652 167.017C107.923 167.45 113.768 172.344 117.866 178.048C121.964 183.747 124.687 190.221 127.448 196.54C130.211 202.855 133.202 209.331 137.637 214.729C131.63 206.307 126.787 196.724 124.997 187.404C123.208 178.085 124.783 169.134 130.137 164.744C131.762 163.453 133.643 162.612 135.621 162.291C135.852 162.249 136.087 162.214 136.325 162.184C141.281 161.559 147.199 163.459 152.233 168C157.778 173.001 161.622 180.414 163.534 187.451C165.447 194.488 165.651 201.263 165.589 207.812Z" fill="#F2F2F2"/>
<path d="M112.894 236.987L111.353 236.978C110.864 236.639 110.373 236.304 109.879 235.973C109.574 235.759 109.265 235.553 108.955 235.344C103.847 231.885 98.7064 228.568 93.5339 225.392C88.3661 222.213 83.1724 219.18 77.9526 216.294C77.8143 216.228 77.7014 216.109 77.6336 215.96C77.5658 215.81 77.5474 215.639 77.5816 215.476C77.5872 215.455 77.5958 215.435 77.6073 215.417C77.6801 215.265 77.8428 215.202 78.0803 215.332C78.7205 215.687 79.3644 216.043 80.0046 216.407C85.2386 219.342 90.4501 222.424 95.6392 225.653C100.825 228.879 105.981 232.249 111.107 235.761C111.215 235.833 111.323 235.91 111.431 235.983C111.919 236.318 112.405 236.652 112.894 236.987Z" fill="white"/>
<path d="M132.751 237.11L131.799 237.104C131.584 236.771 131.373 236.438 131.158 236.105C126.112 228.26 121.066 220.416 116.022 212.572C107.761 199.729 99.502 186.887 91.2459 174.044C91.1969 173.975 91.1605 173.896 91.1387 173.812C91.0681 173.527 91.2565 173.36 91.4981 173.39C91.5999 173.406 91.6974 173.446 91.7842 173.507C91.871 173.568 91.945 173.649 92.0013 173.745C96.6328 180.947 101.263 188.146 105.893 195.343C114.111 208.121 122.327 220.898 130.543 233.674C131.066 234.485 131.588 235.3 132.111 236.111C132.326 236.444 132.54 236.777 132.751 237.11Z" fill="white"/>
<path d="M153.968 230.98C153.92 232.759 153.813 234.51 153.675 236.244C153.648 236.576 153.621 236.908 153.594 237.239L152.595 237.233C152.625 236.902 152.656 236.57 152.683 236.238C152.894 233.732 153.044 231.198 153.064 228.595C153.091 221.379 152.456 214.178 151.17 207.103C149.804 199.486 147.841 192.015 145.305 184.775C142.644 177.139 139.435 169.752 135.71 162.684C135.639 162.569 135.608 162.43 135.621 162.291C135.663 161.976 136.042 161.882 136.325 162.184C136.381 162.243 136.429 162.311 136.468 162.385C136.929 163.263 137.382 164.144 137.826 165.028C141.414 172.135 144.485 179.548 147.01 187.197C149.416 194.461 151.245 201.943 152.478 209.559C153.633 216.624 154.132 223.802 153.968 230.98Z" fill="white"/>
<path d="M222.108 236.561H3.14545C2.31144 236.562 1.51181 236.93 0.922082 237.583C0.332357 238.237 0.00073164 239.123 0 240.048V404.513C0.00073164 405.438 0.332357 406.324 0.922082 406.978C1.51181 407.632 2.31144 407.999 3.14545 408H222.108C222.562 408 223.012 407.891 223.425 407.679C223.838 407.468 224.204 407.16 224.499 406.776C224.524 406.746 224.547 406.714 224.568 406.681C224.756 406.426 224.908 406.142 225.019 405.837C225.177 405.418 225.258 404.968 225.257 404.513V240.048C225.256 239.123 224.924 238.236 224.333 237.582C223.743 236.928 222.942 236.561 222.108 236.561ZM224.359 404.513C224.359 405 224.23 405.476 223.987 405.881C223.771 406.238 223.479 406.529 223.136 406.729C222.818 406.911 222.465 407.005 222.108 407.004H3.14545C2.54964 407.004 1.97844 406.741 1.55714 406.274C1.13584 405.807 0.898834 405.174 0.898111 404.513V240.048C0.898834 239.387 1.13584 238.754 1.55714 238.287C1.97844 237.82 2.54964 237.558 3.14545 237.557H222.108C222.704 237.557 223.276 237.819 223.698 238.286C224.12 238.753 224.358 239.387 224.359 240.048V404.513Z" fill="#3F3D56"/>
<path d="M224.806 250.536H0.448242V251.532H224.806V250.536Z" fill="#3F3D56"/>
<path d="M8.0917 247.027C9.58159 247.027 10.7894 245.688 10.7894 244.037C10.7894 242.385 9.58159 241.047 8.0917 241.047C6.60181 241.047 5.39401 242.385 5.39401 244.037C5.39401 245.688 6.60181 247.027 8.0917 247.027Z" fill="#3F3D56"/>
<path d="M15.8475 247.027C17.3374 247.027 18.5452 245.688 18.5452 244.037C18.5452 242.385 17.3374 241.047 15.8475 241.047C14.3576 241.047 13.1498 242.385 13.1498 244.037C13.1498 245.688 14.3576 247.027 15.8475 247.027Z" fill="#3F3D56"/>
<path d="M23.6034 247.027C25.0933 247.027 26.3011 245.688 26.3011 244.037C26.3011 242.385 25.0933 241.047 23.6034 241.047C22.1135 241.047 20.9057 242.385 20.9057 244.037C20.9057 245.688 22.1135 247.027 23.6034 247.027Z" fill="#3F3D56"/>
<path d="M168.936 273.608H56.3888C55.1451 273.608 53.9523 273.06 53.0729 272.085C52.1934 271.111 51.6994 269.788 51.6994 268.41C51.6994 267.031 52.1934 265.709 53.0729 264.734C53.9523 263.759 55.1451 263.212 56.3888 263.212H168.936C170.18 263.212 171.373 263.759 172.252 264.734C173.131 265.709 173.626 267.031 173.626 268.41C173.626 269.788 173.131 271.111 172.252 272.085C171.373 273.06 170.18 273.608 168.936 273.608ZM56.3888 264.011C55.3365 264.011 54.3272 264.475 53.583 265.3C52.8389 266.125 52.4208 267.243 52.4208 268.41C52.4208 269.576 52.8389 270.695 53.583 271.52C54.3272 272.345 55.3365 272.808 56.3888 272.808H168.936C169.988 272.808 170.998 272.345 171.742 271.52C172.486 270.695 172.904 269.576 172.904 268.41C172.904 267.243 172.486 266.125 171.742 265.3C170.998 264.475 169.988 264.011 168.936 264.011H56.3888Z" fill="#3F3D56"/>
<path d="M65.7336 334.632H22.4463C20.8204 334.63 19.2617 333.913 18.112 332.639C16.9624 331.364 16.3157 329.637 16.3139 327.834V305.443C16.3157 303.641 16.9624 301.913 18.112 300.639C19.2617 299.364 20.8204 298.648 22.4463 298.646H65.7336C67.3595 298.648 68.9182 299.364 70.0679 300.639C71.2175 301.913 71.8642 303.641 71.866 305.443V327.834C71.8642 329.637 71.2175 331.364 70.0679 332.639C68.9182 333.913 67.3595 334.63 65.7336 334.632Z" fill="#007AFF"/>
<path d="M134.272 334.632H90.9847C89.3588 334.63 87.8001 333.913 86.6504 332.639C85.5007 331.364 84.8541 329.637 84.8522 327.834V305.443C84.8541 303.641 85.5007 301.913 86.6504 300.639C87.8001 299.364 89.3588 298.648 90.9847 298.646H134.272C135.898 298.648 137.457 299.364 138.606 300.639C139.756 301.913 140.403 303.641 140.404 305.443V327.834C140.403 329.637 139.756 331.364 138.606 332.639C137.457 333.913 135.898 334.63 134.272 334.632Z" fill="black"/>
<path d="M202.81 334.632H159.523C157.897 334.63 156.338 333.913 155.189 332.639C154.039 331.364 153.392 329.637 153.391 327.834V305.443C153.392 303.641 154.039 301.913 155.189 300.639C156.338 299.364 157.897 298.648 159.523 298.646H202.81C204.436 298.648 205.995 299.364 207.145 300.639C208.294 301.913 208.941 303.641 208.943 305.443V327.834C208.941 329.637 208.294 331.364 207.145 332.639C205.995 333.913 204.436 334.63 202.81 334.632Z" fill="#007AFF"/>
<path d="M65.7336 381.814H22.4463C20.8204 381.812 19.2617 381.095 18.112 379.821C16.9624 378.546 16.3157 376.819 16.3139 375.016V352.625C16.3157 350.823 16.9624 349.095 18.112 347.821C19.2617 346.546 20.8204 345.83 22.4463 345.828H65.7336C67.3595 345.83 68.9182 346.546 70.0679 347.821C71.2175 349.095 71.8642 350.823 71.866 352.625V375.016C71.8642 376.819 71.2175 378.546 70.0679 379.821C68.9182 381.095 67.3595 381.812 65.7336 381.814Z" fill="#007AFF"/>
<path d="M134.272 381.814H90.9847C89.3588 381.812 87.8001 381.095 86.6504 379.821C85.5007 378.546 84.8541 376.819 84.8522 375.016V352.625C84.8541 350.823 85.5007 349.095 86.6504 347.821C87.8001 346.546 89.3588 345.83 90.9847 345.828H134.272C135.898 345.83 137.457 346.546 138.606 347.821C139.756 349.095 140.403 350.823 140.404 352.625V375.016C140.403 376.819 139.756 378.546 138.606 379.821C137.457 381.095 135.898 381.812 134.272 381.814Z" fill="#007AFF"/>
<path d="M202.81 381.814H159.523C157.897 381.812 156.338 381.095 155.189 379.821C154.039 378.546 153.392 376.819 153.391 375.016V352.625C153.392 350.823 154.039 349.095 155.189 347.821C156.338 346.546 157.897 345.83 159.523 345.828H202.81C204.436 345.83 205.995 346.546 207.145 347.821C208.294 349.095 208.941 350.823 208.943 352.625V375.016C208.941 376.819 208.294 378.546 207.145 379.821C205.995 381.095 204.436 381.812 202.81 381.814Z" fill="black"/>
<path d="M251.469 274.655C258.043 274.655 263.373 268.747 263.373 261.46C263.373 254.172 258.043 248.265 251.469 248.265C244.895 248.265 239.565 254.172 239.565 261.46C239.565 268.747 244.895 274.655 251.469 274.655Z" fill="#2F2E41"/>
<path d="M221.647 330.101C221.383 329.545 221.233 328.932 221.206 328.305C221.179 327.678 221.276 327.052 221.491 326.471C221.706 325.89 222.034 325.368 222.45 324.942C222.867 324.517 223.363 324.198 223.903 324.008L238.987 288.637L245.887 294L228.89 327.082C229.118 328.108 228.998 329.192 228.554 330.127C228.11 331.063 227.371 331.785 226.478 332.157C225.585 332.53 224.601 332.526 223.71 332.147C222.82 331.768 222.086 331.04 221.647 330.101Z" fill="#FFB8B8"/>
<path d="M234.573 293.333C234.501 293.068 234.481 292.789 234.516 292.515C234.55 292.241 234.637 291.978 234.772 291.745L239.462 283.595C239.983 282.302 240.946 281.292 242.138 280.784C243.331 280.277 244.656 280.314 245.824 280.889C246.992 281.463 247.906 282.527 248.367 283.848C248.829 285.168 248.798 286.637 248.284 287.933L245.921 297.271C245.854 297.538 245.735 297.785 245.574 297.996C245.412 298.207 245.212 298.377 244.986 298.495C244.76 298.612 244.513 298.674 244.264 298.677C244.014 298.679 243.767 298.622 243.539 298.509L235.528 294.538C235.3 294.425 235.096 294.259 234.931 294.051C234.767 293.843 234.644 293.599 234.573 293.333Z" fill="#202A9D"/>
<path d="M272.527 333.608C271.975 333.466 271.458 333.191 271.012 332.804C270.566 332.416 270.202 331.925 269.946 331.365C269.69 330.805 269.548 330.189 269.53 329.562C269.512 328.934 269.618 328.309 269.841 327.732L255.555 291.957L263.728 289.675L275.2 325.559C276.05 326.038 276.712 326.847 277.06 327.831C277.408 328.816 277.418 329.907 277.089 330.9C276.759 331.892 276.113 332.715 275.272 333.215C274.431 333.714 273.454 333.854 272.527 333.608V333.608Z" fill="#FFB8B8"/>
<path d="M276.421 398.453L272.265 400.131L264.452 383.162L270.585 380.686L276.421 398.453Z" fill="#FFB8B8"/>
<path d="M268.865 400.012L276.879 396.778L278.716 402.371L265.656 407.642C265.415 406.908 265.306 406.128 265.337 405.347C265.368 404.566 265.537 403.799 265.835 403.091C266.133 402.382 266.554 401.746 267.074 401.218C267.593 400.689 268.202 400.28 268.865 400.012Z" fill="#2F2E41"/>
<path d="M265.076 387.72L249.245 357.011C249.092 356.714 249.013 356.377 249.017 356.035C249.02 355.693 249.105 355.358 249.264 355.064L256.393 341.895C256.562 341.582 256.807 341.329 257.101 341.165C257.394 341.001 257.724 340.933 258.051 340.968C258.378 341.003 258.689 341.141 258.949 341.364C259.208 341.588 259.405 341.888 259.517 342.231L272.995 383.603C273.143 384.053 273.134 384.548 272.969 384.992C272.805 385.435 272.496 385.794 272.105 385.998L267.329 388.505C267.098 388.626 266.846 388.688 266.591 388.688C266.284 388.689 265.983 388.6 265.717 388.43C265.451 388.26 265.23 388.015 265.076 387.72Z" fill="#2F2E41"/>
<path d="M250.385 275.877C255.279 275.877 259.245 271.48 259.245 266.056C259.245 260.632 255.279 256.235 250.385 256.235C245.492 256.235 241.525 260.632 241.525 266.056C241.525 271.48 245.492 275.877 250.385 275.877Z" fill="#FFB8B8"/>
<path d="M237.783 310.54C230.806 293.391 237.84 283.806 241.188 280.482C242.152 279.523 243.402 278.993 244.698 278.994H257.179C258.075 278.994 258.957 279.248 259.739 279.732C260.522 280.215 261.181 280.913 261.652 281.758C262.123 282.603 262.391 283.568 262.432 284.56C262.472 285.553 262.283 286.54 261.882 287.429L253.538 305.925L237.851 310.707L237.783 310.54Z" fill="#007AFF"/>
<path d="M256.042 298.369C255.814 298.256 255.611 298.089 255.446 297.881C255.282 297.673 255.16 297.428 255.088 297.163L252.59 287.902C252.049 286.619 251.989 285.152 252.423 283.82C252.856 282.489 253.748 281.402 254.903 280.798C256.058 280.194 257.382 280.122 258.585 280.598C259.787 281.075 260.771 282.06 261.319 283.338L266.149 291.424C266.287 291.655 266.379 291.916 266.417 292.189C266.456 292.463 266.441 292.742 266.373 293.008C266.306 293.275 266.187 293.522 266.026 293.733C265.864 293.944 265.663 294.114 265.437 294.232L257.489 298.355C257.263 298.473 257.017 298.535 256.767 298.537C256.517 298.539 256.27 298.482 256.042 298.369Z" fill="#007AFF"/>
<path d="M247.873 403.09L243.451 403.09L241.347 384.182L247.874 384.182L247.873 403.09Z" fill="#FFB8B8"/>
<path d="M240.292 401.689H248.821V407.642H234.922C234.922 406.86 235.061 406.086 235.331 405.364C235.6 404.642 235.996 403.986 236.495 403.433C236.993 402.88 237.585 402.442 238.237 402.142C238.888 401.843 239.587 401.689 240.292 401.689Z" fill="#2F2E41"/>
<path d="M245.999 395.872L238.919 394.967C238.69 394.937 238.468 394.858 238.267 394.732C238.066 394.607 237.889 394.439 237.747 394.237C237.606 394.035 237.501 393.804 237.441 393.558C237.381 393.311 237.365 393.053 237.396 392.8L243.715 340.06C243.737 339.876 243.728 339.689 243.689 339.509L237.337 310.462C237.277 310.194 237.27 309.915 237.317 309.644C237.364 309.373 237.464 309.117 237.609 308.892C238.594 307.387 241.969 303.88 252.007 303.813H252.018C252.352 303.813 252.679 303.92 252.961 304.12C253.242 304.321 253.465 304.606 253.604 304.943L254.943 308.209C255.043 308.451 255.199 308.66 255.395 308.813C257.238 310.26 266.167 318.377 260.924 336.198C255.771 353.715 249.169 387.721 247.898 394.36C247.817 394.791 247.604 395.179 247.295 395.457C246.987 395.734 246.601 395.886 246.203 395.885C246.135 395.885 246.067 395.881 245.999 395.872Z" fill="#2F2E41"/>
<path d="M259.695 259.879C257.67 261.426 255.267 262.249 252.808 262.238C253.686 262.912 254.684 263.367 255.735 263.573C252.466 264.35 249.087 264.371 245.81 263.634C245.082 263.505 244.379 263.237 243.732 262.843C243.41 262.644 243.13 262.372 242.909 262.044C242.688 261.717 242.531 261.341 242.45 260.942C242.232 259.563 243.202 258.311 244.209 257.466C245.751 256.193 247.53 255.316 249.415 254.899C251.301 254.481 253.247 254.533 255.112 255.051C256.33 255.4 257.55 255.99 258.341 257.074C259.132 258.158 259.366 259.83 258.612 260.946L259.695 259.879Z" fill="#2F2E41"/>
<path d="M253.779 253.047C252.767 252.674 251.726 252.282 250.924 251.503C250.122 250.723 249.613 249.448 249.973 248.335C250.321 247.263 251.379 246.637 252.404 246.552C253.429 246.468 254.438 246.82 255.416 247.167C254.974 246.426 254.516 244.988 254.116 243.472C253.203 240.013 257.009 236.854 260.252 237.114C260.348 237.122 260.44 237.133 260.53 237.147C263.8 237.676 265.497 239.059 267.781 241.707C270.638 245.019 272.132 249.488 273.133 253.935C274.134 258.381 274.721 262.957 276.129 267.266C277.536 271.575 279.91 275.718 283.54 277.911C285.529 279.072 287.767 279.606 290.01 279.453C292.253 279.299 294.415 278.465 296.26 277.042C296.511 278.934 296.356 280.866 295.808 282.679C295.26 284.493 294.334 286.138 293.106 287.481C291.877 288.824 290.38 289.827 288.736 290.409C287.092 290.991 285.348 291.135 283.644 290.831C278.958 289.991 275.203 285.807 273.198 281.038C271.193 276.268 270.645 270.929 270.142 265.697C269.639 260.464 269.13 255.127 267.19 250.324C266.405 248.381 265.249 246.402 263.183 246.092C262.644 245.995 262.09 246.097 261.609 246.383C261.127 246.669 260.744 247.123 260.518 247.675C259.61 250.112 262.718 252.175 261.921 254.497C261.749 254.947 261.464 255.332 261.1 255.607C260.736 255.883 260.308 256.037 259.868 256.051C258.366 256.161 257.132 255.207 255.97 254.286C253.592 252.401 253.779 253.047 253.779 253.047Z" fill="#2F2E41"/>
<path d="M305.639 408H222.672C222.576 408 222.484 407.958 222.417 407.883C222.349 407.808 222.311 407.706 222.311 407.6C222.311 407.494 222.349 407.392 222.417 407.317C222.484 407.243 222.576 407.2 222.672 407.2H305.639C305.735 407.2 305.827 407.243 305.894 407.317C305.962 407.392 306 407.494 306 407.6C306 407.706 305.962 407.808 305.894 407.883C305.827 407.958 305.735 408 305.639 408Z" fill="#3F3D56"/>
</g>
<defs>
<linearGradient id="paint0_linear" x1="280" y1="0" x2="280" y2="427" gradientUnits="userSpaceOnUse">
<stop stop-opacity="0.39"/>
<stop offset="1" stop-color="white" stop-opacity="0"/>
</linearGradient>
<clipPath id="clip0">
<rect width="306" height="246" fill="white" transform="translate(0 162)"/>
</clipPath>
</defs>
</svg>
