<svg width="417" height="428" viewBox="0 0 417 428" fill="none" xmlns="http://www.w3.org/2000/svg">
<g clip-path="url(#clip0)">
<path d="M189.638 415.248C188.398 415.684 187.066 415.793 185.771 415.565C184.476 415.337 183.262 414.78 182.245 413.947C179.655 411.774 178.843 408.196 178.183 404.882L176.229 395.08L180.32 397.895C183.262 399.92 186.27 402.009 188.307 404.942C190.344 407.874 191.233 411.878 189.596 415.051" fill="#E6E6E6"/>
<path d="M189.289 427.115C189.703 424.101 190.129 421.048 189.838 418.001C189.58 415.296 188.754 412.653 187.073 410.486C186.18 409.338 185.094 408.354 183.863 407.579C183.542 407.377 183.247 407.885 183.567 408.087C185.696 409.432 187.343 411.418 188.27 413.759C189.295 416.362 189.459 419.2 189.281 421.966C189.174 423.638 188.948 425.299 188.72 426.959C188.702 427.034 188.713 427.113 188.751 427.18C188.789 427.247 188.852 427.298 188.926 427.32C189.001 427.341 189.081 427.33 189.149 427.292C189.217 427.253 189.266 427.19 189.287 427.115L189.289 427.115Z" fill="#F2F2F2"/>
<path d="M174.462 377.05H3.31848V206H174.462V377.05Z" fill="white"/>
<path d="M174.462 377.05H3.31848V206H174.462V377.05ZM5.8471 374.522H171.934V208.527H5.8471V374.522Z" fill="#E5E5E5"/>
<path d="M144.144 232.761H70.0314V235.068H144.144V232.761Z" fill="#E5E5E5"/>
<path d="M144.144 238.76H70.0314V241.067H144.144V238.76Z" fill="#E5E5E5"/>
<path d="M144.144 244.759H70.0314V247.067H144.144V244.759Z" fill="#E5E5E5"/>
<path d="M144.144 284.274H70.0314V286.582H144.144V284.274Z" fill="#E5E5E5"/>
<path d="M144.144 290.273H70.0314V292.581H144.144V290.273Z" fill="#E5E5E5"/>
<path d="M144.144 296.273H70.0314V298.58H144.144V296.273Z" fill="#E5E5E5"/>
<path d="M144.144 335.788H70.0314V338.095H144.144V335.788Z" fill="#E5E5E5"/>
<path d="M144.144 341.787H70.0314V344.094H144.144V341.787Z" fill="#E5E5E5"/>
<path d="M144.144 347.786H70.0314V350.093H144.144V347.786Z" fill="#E5E5E5"/>
<path d="M40.3623 251.145C39.0963 250.478 37.7747 249.922 36.4125 249.483L36.2388 247.563L29.1945 246.804L28.2993 249.259L25.7712 250.207C25.6807 250.241 25.5946 250.286 25.5147 250.341H25.5119C25.3709 250.436 25.2507 250.559 25.1588 250.702C25.0669 250.846 25.0052 251.006 24.9775 251.174C24.9505 251.341 24.9568 251.512 24.9962 251.676L25.1299 252.224C25.3222 252.339 25.52 252.448 25.7177 252.552L25.8434 252.616C26.132 252.766 26.426 252.907 26.7279 253.038C26.7894 253.065 26.8562 253.092 26.9177 253.118C26.923 253.121 26.9256 253.121 26.931 253.124C27.0727 253.183 27.2143 253.239 27.3586 253.292C27.8326 253.473 28.3161 253.628 28.807 253.757C30.0597 254.09 31.3507 254.259 32.6472 254.259C33.1202 254.259 33.5879 254.238 34.0502 254.192C35.1065 254.095 36.1494 253.884 37.1609 253.564C37.1635 253.564 37.1662 253.562 37.1688 253.562C37.8078 253.358 38.4319 253.111 39.0369 252.822C39.0395 252.819 39.0448 252.819 39.0476 252.817C39.1838 252.753 39.3148 252.683 39.4484 252.616L39.5125 252.584C39.6193 252.528 39.7263 252.472 39.8332 252.413C40.1005 252.266 40.3623 252.111 40.6215 251.946C40.6936 251.903 40.7632 251.858 40.8353 251.81C40.9369 251.743 41.0384 251.673 41.1373 251.601C40.8887 251.441 40.6296 251.289 40.3623 251.145Z" fill="#3F3D56"/>
<path d="M27.142 252.328L26.7011 250.338H25.5493C25.5377 250.338 25.5261 250.339 25.5146 250.341H25.5119C25.098 250.376 24.6993 250.513 24.3521 250.741C24.1166 250.892 23.9072 251.079 23.7322 251.297C24.0742 251.556 24.4296 251.796 24.7958 252.026L24.8118 252.034C24.9159 252.098 25.0229 252.162 25.1298 252.224C25.3222 252.338 25.52 252.448 25.7177 252.552L25.8433 252.616C26.132 252.766 26.4259 252.907 26.7279 253.038C26.7893 253.065 26.8562 253.092 26.9176 253.118C26.923 253.121 26.9256 253.121 26.9309 253.124C27.0726 253.183 27.2142 253.239 27.3585 253.292L27.142 252.328Z" fill="#3F3D56"/>
<path d="M32.4402 245.59C35.2421 245.59 37.5136 243.32 37.5136 240.52C37.5136 237.719 35.2421 235.449 32.4402 235.449C29.6382 235.449 27.3668 237.719 27.3668 240.52C27.3668 243.32 29.6382 245.59 32.4402 245.59Z" fill="#FFB8B8"/>
<path d="M29.034 238.05C29.5592 238.671 30.448 238.847 31.2679 238.918C33.1847 239.024 35.1071 238.867 36.9813 238.452C37.0975 239.577 36.7808 240.79 37.4438 241.716C37.7546 240.595 37.9354 239.443 37.9824 238.281C38.0319 237.783 37.9668 237.28 37.7921 236.81C37.6986 236.575 37.541 236.37 37.3372 236.22C37.1333 236.07 36.8914 235.98 36.6389 235.96C37.0169 235.674 37.4597 235.485 37.9281 235.41L36.3172 234.6L36.7309 234.176L33.8144 233.998L34.6591 233.461C33.3878 233.287 32.1016 233.246 30.8217 233.34C30.2236 233.341 29.6369 233.504 29.1245 233.812C28.6429 234.156 28.3647 234.84 28.6636 235.345C28.2894 235.407 27.937 235.563 27.6399 235.798C27.3428 236.034 27.1108 236.341 26.9659 236.692C26.7826 237.248 26.7384 237.842 26.837 238.419C26.9469 239.346 27.1624 240.258 27.4795 241.136L29.034 238.05Z" fill="#2F2E41"/>
<path d="M46.7064 235.023C45.9946 232.979 44.8452 231.115 43.3386 229.561C41.8319 228.007 40.0041 226.8 37.9827 226.024C35.9613 225.248 33.7949 224.923 31.6346 225.07C29.4744 225.217 27.3722 225.833 25.4747 226.875C23.5772 227.918 21.9301 229.362 20.6482 231.106C19.3663 232.85 18.4805 234.852 18.0525 236.974C17.6245 239.095 17.6647 241.284 18.1702 243.389C18.6758 245.493 19.6345 247.462 20.9795 249.157C21.1132 249.326 21.2521 249.494 21.3938 249.657C21.4045 249.668 21.4125 249.678 21.4232 249.689C21.7715 250.09 22.1418 250.472 22.5322 250.832C22.6338 250.926 22.7407 251.022 22.8476 251.113C23.0506 251.294 23.2591 251.468 23.4756 251.633C23.5611 251.7 23.6439 251.767 23.7321 251.831C24.0741 252.09 24.4296 252.33 24.7957 252.56L24.8118 252.568C24.9159 252.632 25.0229 252.696 25.1298 252.758C25.3221 252.873 25.5199 252.982 25.7176 253.086L25.8433 253.15C26.1319 253.3 26.4259 253.442 26.7279 253.572C26.7893 253.599 26.8561 253.626 26.9176 253.653C26.9229 253.655 26.9255 253.655 26.9309 253.658C27.0726 253.717 27.2142 253.773 27.3585 253.826C27.8326 254.007 28.3161 254.162 28.8069 254.291C30.0596 254.625 31.3506 254.793 32.6471 254.793C33.1201 254.793 33.5878 254.772 34.0501 254.726C35.1065 254.629 36.1493 254.418 37.1608 254.099C37.1634 254.099 37.1661 254.096 37.1687 254.096C37.8077 253.893 38.4318 253.645 39.0368 253.356C39.0394 253.353 39.0447 253.353 39.0475 253.351C39.1837 253.287 39.3147 253.217 39.4483 253.15L39.5124 253.118C39.6193 253.062 39.7263 253.006 39.8331 252.947C40.1004 252.801 40.3623 252.646 40.6214 252.48C40.6936 252.437 40.7631 252.392 40.8353 252.344C40.9368 252.277 41.0383 252.208 41.1372 252.135C41.2681 252.045 41.3991 251.951 41.5274 251.855C41.5674 251.826 41.6102 251.796 41.6503 251.764C44.1539 249.865 45.9916 247.222 46.8999 244.215C47.8082 241.207 47.7405 237.99 46.7064 235.023V235.023ZM41.1586 251.115C41.0704 251.185 40.9796 251.251 40.8887 251.313C40.8004 251.38 40.7124 251.444 40.6214 251.503C40.5439 251.559 40.4664 251.612 40.3863 251.663L40.3623 251.679C40.3034 251.719 40.2447 251.756 40.1859 251.794C39.964 251.933 39.7395 252.066 39.5124 252.194L39.4403 252.234C39.3387 252.29 39.2372 252.344 39.1357 252.397C39.1223 252.405 39.1062 252.411 39.0929 252.419L39.0769 252.427C38.9486 252.493 38.8176 252.558 38.6867 252.619C38.1814 252.862 37.661 253.073 37.1287 253.249C37.0591 253.273 36.9897 253.297 36.9203 253.319C35.9629 253.623 34.9756 253.824 33.9753 253.917C33.537 253.957 33.0934 253.978 32.6471 253.978C31.4209 253.981 30.1997 253.821 29.0154 253.503C28.4077 253.344 27.812 253.143 27.233 252.899C27.2035 252.886 27.1714 252.875 27.142 252.862C27.1101 252.849 27.0806 252.838 27.0512 252.825C27.0191 252.811 26.9897 252.798 26.9576 252.782C26.7065 252.672 26.4579 252.552 26.2148 252.427L26.0972 252.365C25.8005 252.21 25.5092 252.045 25.226 251.868C25.1431 251.818 25.0576 251.764 24.9774 251.708C24.9561 251.695 24.9373 251.681 24.9159 251.668C24.7262 251.543 24.5365 251.412 24.3521 251.275C24.2266 251.182 24.1009 251.089 23.978 250.992C23.7722 250.837 23.5744 250.672 23.382 250.501C23.2805 250.415 23.1816 250.322 23.0855 250.234C22.7065 249.884 22.3479 249.513 22.0112 249.123C21.8989 248.995 21.7893 248.866 21.6851 248.733C21.6614 248.706 21.6391 248.679 21.6183 248.65C19.8819 246.46 18.8376 243.803 18.6183 241.018C18.3991 238.232 19.0149 235.445 20.3872 233.01C21.7596 230.576 23.8263 228.606 26.3237 227.35C28.8212 226.094 31.6362 225.611 34.4098 225.961C37.1834 226.311 39.7898 227.478 41.8968 229.315C44.0037 231.151 45.5156 233.573 46.2396 236.272C46.9637 238.971 46.8671 241.824 45.9622 244.467C45.0572 247.111 43.3849 249.425 41.1586 251.115L41.1586 251.115Z" fill="#3F3D56"/>
<path d="M46.7066 286.537C45.9948 284.493 44.8455 282.629 43.3388 281.075C41.8321 279.52 40.0043 278.313 37.9829 277.538C35.9615 276.762 33.7952 276.436 31.6349 276.583C29.4746 276.73 27.3724 277.347 25.4749 278.389C23.5775 279.432 21.9303 280.875 20.6484 282.619C19.3665 284.363 18.4807 286.366 18.0527 288.487C17.6248 290.609 17.6649 292.798 18.1705 294.902C18.676 297.006 19.6347 298.975 20.9798 300.671C21.1134 300.839 21.2523 301.008 21.3939 301.17C21.4046 301.181 21.4126 301.192 21.4233 301.203C21.7717 301.604 22.142 301.985 22.5324 302.346C22.6339 302.439 22.7408 302.535 22.8477 302.626C23.0508 302.808 23.2592 302.981 23.4757 303.147C23.8984 303.48 24.3391 303.789 24.7958 304.074L24.8119 304.082C25.1085 304.266 25.4104 304.437 25.7179 304.6L25.8434 304.664C26.132 304.814 26.426 304.955 26.728 305.086C26.7894 305.113 26.8562 305.139 26.9177 305.166C26.923 305.169 26.9258 305.169 26.9311 305.171C27.5412 305.425 28.1681 305.637 28.8071 305.804C30.0598 306.138 31.3508 306.307 32.6472 306.307C33.1202 306.307 33.5879 306.285 34.0502 306.24C35.1066 306.142 36.1494 305.932 37.1609 305.612C37.1636 305.612 37.1662 305.609 37.1688 305.609C37.8078 305.406 38.4319 305.159 39.0369 304.87C39.0395 304.867 39.045 304.867 39.0476 304.864C39.1838 304.8 39.3148 304.731 39.4484 304.664L39.5126 304.632C39.6195 304.576 39.7264 304.52 39.8332 304.461C40.1005 304.314 40.3624 304.159 40.6216 303.994C40.6938 303.951 40.7632 303.905 40.8354 303.857C41.0705 303.702 41.303 303.537 41.5275 303.369C41.5677 303.339 41.6103 303.31 41.6505 303.278C44.1541 301.378 45.9917 298.736 46.9 295.728C47.8083 292.721 47.7406 289.503 46.7066 286.537V286.537Z" fill="white"/>
<path d="M37.56 297.561C38.7922 297.561 39.7912 296.562 39.7912 295.331C39.7912 294.099 38.7922 293.101 37.56 293.101C36.3278 293.101 35.3289 294.099 35.3289 295.331C35.3289 296.562 36.3278 297.561 37.56 297.561Z" fill="#2F2E41"/>
<path d="M38.1816 293.162C38.5677 293.162 38.9473 293.262 39.2831 293.453C39.6189 293.643 39.8995 293.918 40.0975 294.249C40.2954 294.581 40.4039 294.958 40.4124 295.344C40.4208 295.729 40.329 296.111 40.1457 296.451C40.3391 296.209 40.48 295.929 40.5593 295.63C40.6386 295.331 40.6547 295.018 40.6065 294.712C40.5584 294.406 40.447 294.114 40.2794 293.853C40.1119 293.593 39.892 293.37 39.6336 293.199C39.3752 293.029 39.084 292.914 38.7787 292.861C38.4733 292.809 38.1604 292.821 37.8599 292.897C37.5595 292.972 37.278 293.109 37.0335 293.299C36.789 293.489 36.5867 293.728 36.4397 294.001C36.6483 293.739 36.9132 293.528 37.2149 293.383C37.5165 293.237 37.847 293.162 38.1818 293.162L38.1816 293.162Z" fill="#2F2E41"/>
<path d="M33.3905 295.326C37.0103 295.326 39.9448 292.393 39.9448 288.775C39.9448 285.158 37.0103 282.225 33.3905 282.225C29.7707 282.225 26.8363 285.158 26.8363 288.775C26.8363 292.393 29.7707 295.326 33.3905 295.326Z" fill="#2F2E41"/>
<path d="M28.2466 284.711C29.3759 283.442 30.9545 282.66 32.6493 282.532C34.344 282.404 36.0223 282.939 37.3299 284.024C37.2765 283.973 37.223 283.922 37.1677 283.872C35.873 282.713 34.1705 282.115 32.4348 282.211C30.6992 282.306 29.0725 283.086 27.9126 284.381C26.7527 285.675 26.1546 287.376 26.25 289.111C26.3453 290.845 27.1263 292.471 28.421 293.631C28.4335 293.642 28.4459 293.653 28.4585 293.664C28.5141 293.713 28.5712 293.76 28.6282 293.807C27.3968 292.636 26.6687 291.033 26.5976 289.336C26.5264 287.639 27.1178 285.981 28.2468 284.711L28.2466 284.711Z" fill="#2F2E41"/>
<path d="M33.335 295.27C35.6664 295.27 37.5563 293.382 37.5563 291.051C37.5563 288.721 35.6664 286.833 33.335 286.833C31.0037 286.833 29.1138 288.721 29.1138 291.051C29.1138 293.382 31.0037 295.27 33.335 295.27Z" fill="#A0616A"/>
<path d="M40.8888 302.044V303.459C40.6295 303.625 40.3676 303.78 40.1004 303.927C39.9935 303.986 39.8866 304.042 39.7798 304.098L39.7156 304.13C39.582 304.197 39.451 304.266 39.3147 304.33C39.3121 304.333 39.3066 304.333 39.304 304.335C38.6991 304.625 38.0749 304.872 37.436 305.075C37.4334 305.075 37.4308 305.078 37.428 305.078C36.4166 305.398 35.3737 305.608 34.3174 305.706C33.855 305.751 33.3874 305.772 32.9144 305.772C31.6179 305.773 30.327 305.604 29.0743 305.27C28.4352 305.102 27.8084 304.891 27.1983 304.637C27.1929 304.635 27.1902 304.635 27.1848 304.632C27.1234 304.605 27.0566 304.579 26.9951 304.552C26.6932 304.421 26.3992 304.279 26.1105 304.13L25.985 304.066C25.6776 303.903 25.3756 303.732 25.079 303.548L25.063 303.54C24.6062 303.255 24.1655 302.946 23.7429 302.613C23.5264 302.447 23.318 302.274 23.1148 302.092C23.008 302.001 22.9011 301.905 22.7996 301.812C22.4091 301.451 22.0389 301.069 21.6904 300.668C21.7366 300.39 21.8046 300.116 21.8936 299.848L21.8962 299.846C21.9122 299.8 21.9309 299.756 21.9523 299.712C21.9671 299.674 21.984 299.636 22.0031 299.6C22.4814 298.705 23.3474 298.484 24.4216 298.436C25.0283 298.409 25.699 298.438 26.4073 298.43C26.7814 298.427 27.1688 298.414 27.5563 298.379C30.0015 298.158 29.558 296.715 29.6675 295.938C29.7771 295.185 30.4559 295.837 30.5013 295.879L30.5039 295.882C31.8876 296.529 33.4186 296.798 34.94 296.659C35.2019 296.627 35.4638 296.609 35.7257 296.601C36.4152 296.593 36.2655 296.79 36.0278 296.953C35.9124 297.029 35.7918 297.097 35.667 297.156C35.667 297.156 35.5574 297.824 35.4452 298.823C35.3383 299.779 37.1715 300.228 37.3238 300.262C37.3269 300.264 37.3307 300.265 37.3345 300.265C38.004 300.092 38.7088 300.11 39.3682 300.318H39.3709C39.7476 300.457 40.0838 300.687 40.3489 300.989C40.614 301.29 40.7996 301.653 40.8888 302.044Z" fill="#007AFF"/>
<path d="M27.2249 303.761C27.2249 303.959 27.2197 304.149 27.2116 304.327C27.209 304.434 27.2036 304.538 27.1983 304.637C27.1929 304.635 27.1902 304.635 27.1848 304.632C27.1234 304.605 27.0566 304.579 26.9951 304.552C26.6932 304.421 26.3992 304.279 26.1106 304.13L25.985 304.066C25.6776 303.903 25.3757 303.732 25.0791 303.548C25.087 303.454 25.1005 303.361 25.1138 303.267C25.1431 303.061 25.1673 302.853 25.1833 302.648C25.2884 301.203 25.0264 299.755 24.4217 298.438V298.436C24.3682 298.329 24.3362 298.27 24.3362 298.27C24.3362 298.27 25.1138 297.602 26.2228 298.27C26.2936 298.312 26.3562 298.366 26.4073 298.43C27.0754 299.218 27.257 301.868 27.2249 303.761Z" fill="#2F2E41"/>
<path d="M39.3601 303.398C39.3494 303.697 39.3333 304.01 39.3147 304.327V304.33C39.3121 304.333 39.3066 304.333 39.304 304.335C38.6991 304.625 38.0749 304.872 37.4359 305.075C37.4333 305.075 37.4307 305.078 37.428 305.078L37.3986 304.327L37.3959 304.229L37.2543 300.575C37.2505 300.492 37.2635 300.41 37.2926 300.332C37.3216 300.254 37.3661 300.184 37.4233 300.124C37.4805 300.064 37.5492 300.016 37.6253 299.983C37.7015 299.951 37.7834 299.934 37.8663 299.934H39.2211C39.2879 299.934 39.3361 300.07 39.3682 300.316V300.318C39.4339 301.344 39.4312 302.373 39.3601 303.398Z" fill="#2F2E41"/>
<path d="M29.7246 285.778V289.998H30.7022L31.9462 288.665L31.7797 289.998H36.1009L35.8336 288.665L36.3681 289.998H37.0571V285.778H29.7246Z" fill="#2F2E41"/>
<path d="M29.0581 290.774C29.2421 290.774 29.3913 290.501 29.3913 290.163C29.3913 289.826 29.2421 289.553 29.0581 289.553C28.8741 289.553 28.7249 289.826 28.7249 290.163C28.7249 290.501 28.8741 290.774 29.0581 290.774Z" fill="#A0616A"/>
<path d="M37.6121 290.774C37.7961 290.774 37.9453 290.501 37.9453 290.163C37.9453 289.826 37.7961 289.553 37.6121 289.553C37.428 289.553 37.2788 289.826 37.2788 290.163C37.2788 290.501 37.428 290.774 37.6121 290.774Z" fill="#A0616A"/>
<path d="M41.7946 302.835C41.5702 303.003 41.3377 303.168 41.1025 303.323C41.0304 303.371 40.9609 303.417 40.8888 303.46C40.6295 303.625 40.3676 303.78 40.1004 303.927C39.9935 303.986 39.8867 304.042 39.7798 304.098V301.155C39.7798 301.155 40.2073 301.496 40.8888 302.065C40.9742 302.137 41.0625 302.212 41.156 302.292C41.3537 302.458 41.5676 302.64 41.7946 302.835Z" fill="#007AFF"/>
<path d="M46.7066 286.537C45.9948 284.493 44.8455 282.629 43.3388 281.075C41.8321 279.52 40.0043 278.313 37.9829 277.538C35.9615 276.762 33.7952 276.436 31.6349 276.583C29.4746 276.73 27.3724 277.347 25.4749 278.389C23.5775 279.432 21.9303 280.875 20.6484 282.619C19.3665 284.363 18.4807 286.366 18.0527 288.487C17.6248 290.609 17.6649 292.798 18.1705 294.902C18.676 297.006 19.6347 298.975 20.9798 300.671C21.1134 300.839 21.2523 301.008 21.3939 301.17C21.4046 301.181 21.4126 301.192 21.4233 301.203C21.7717 301.604 22.142 301.985 22.5324 302.346C22.6339 302.439 22.7408 302.535 22.8477 302.626C23.0508 302.808 23.2592 302.981 23.4757 303.147C23.8984 303.48 24.3391 303.789 24.7958 304.074L24.8119 304.082C25.1085 304.266 25.4104 304.437 25.7179 304.6L25.8434 304.664C26.132 304.814 26.426 304.955 26.728 305.086C26.7894 305.113 26.8562 305.139 26.9177 305.166C26.923 305.169 26.9258 305.169 26.9311 305.171C27.5412 305.425 28.1681 305.637 28.8071 305.804C30.0598 306.138 31.3508 306.307 32.6472 306.307C33.1202 306.307 33.5879 306.285 34.0502 306.24C35.1066 306.142 36.1494 305.932 37.1609 305.612C37.1636 305.612 37.1662 305.609 37.1688 305.609C37.8078 305.406 38.4319 305.159 39.0369 304.87C39.0395 304.867 39.045 304.867 39.0476 304.864C39.1838 304.8 39.3148 304.731 39.4484 304.664L39.5126 304.632C39.6195 304.576 39.7264 304.52 39.8332 304.461C40.1005 304.314 40.3624 304.159 40.6216 303.994C40.6938 303.951 40.7632 303.905 40.8354 303.857C41.0705 303.702 41.303 303.537 41.5275 303.369C41.5677 303.339 41.6103 303.31 41.6505 303.278C44.1541 301.378 45.9917 298.736 46.9 295.728C47.8083 292.721 47.7406 289.503 46.7066 286.537V286.537ZM41.1587 302.629C41.0705 302.698 40.9797 302.765 40.8889 302.826C40.8007 302.893 40.7125 302.957 40.6216 303.016C40.5441 303.072 40.4666 303.126 40.3864 303.176C40.3196 303.222 40.2528 303.264 40.1859 303.307C39.9642 303.446 39.7398 303.58 39.5126 303.708L39.4403 303.748C39.3388 303.804 39.2373 303.857 39.1358 303.911C39.1223 303.919 39.1063 303.924 39.093 303.932L39.077 303.94C38.9487 304.007 38.8178 304.071 38.6868 304.132C38.1815 304.376 37.6611 304.586 37.1288 304.763C37.0594 304.787 36.9898 304.811 36.9204 304.832C35.963 305.137 34.9757 305.337 33.9754 305.431C33.5371 305.471 33.0935 305.492 32.6472 305.492C31.421 305.494 30.1998 305.335 29.0155 305.017C28.4077 304.858 27.8121 304.656 27.2331 304.413C27.1716 304.389 27.1101 304.362 27.0513 304.338C27.0193 304.325 26.9898 304.311 26.9577 304.295C26.7066 304.186 26.4581 304.066 26.2149 303.94L26.0973 303.879C25.8007 303.724 25.5093 303.558 25.2261 303.382C25.1219 303.318 25.0177 303.251 24.9162 303.182C24.5954 302.971 24.2828 302.744 23.9781 302.506C23.7723 302.351 23.5746 302.185 23.3822 302.014C23.2806 301.929 23.1817 301.836 23.0856 301.747C22.7067 301.398 22.348 301.027 22.0113 300.636C21.899 300.508 21.7894 300.38 21.6852 300.246C21.6615 300.22 21.6392 300.192 21.6184 300.164C19.8821 297.974 18.8377 295.317 18.6184 292.531C18.3992 289.746 19.015 286.958 20.3874 284.524C21.7597 282.09 23.8264 280.119 26.3238 278.864C28.8213 277.608 31.6363 277.124 34.4099 277.474C37.1835 277.824 39.7899 278.992 41.8969 280.828C44.0038 282.665 45.5157 285.087 46.2397 287.785C46.9638 290.484 46.8672 293.337 45.9622 295.981C45.0573 298.625 43.385 300.939 41.1587 302.629V302.629Z" fill="#3F3D56"/>
<path d="M32.7313 349.628C35.9527 349.628 38.5641 347.018 38.5641 343.799C38.5641 340.579 35.9527 337.969 32.7313 337.969C29.5099 337.969 26.8984 340.579 26.8984 343.799C26.8984 347.018 29.5099 349.628 32.7313 349.628Z" fill="#2F2E41"/>
<path d="M28.1784 340.656C29.121 339.714 29.312 338.377 28.6051 337.671C27.8981 336.964 26.561 337.155 25.6184 338.097C24.6758 339.039 24.4848 340.376 25.1917 341.082C25.8987 341.789 27.2358 341.598 28.1784 340.656Z" fill="#2F2E41"/>
<path d="M38.8106 338.804C39.2033 337.886 38.528 336.716 37.3021 336.193C36.0763 335.67 34.7642 335.99 34.3715 336.909C33.9788 337.828 34.6541 338.997 35.88 339.521C37.1058 340.044 38.4179 339.723 38.8106 338.804Z" fill="#2F2E41"/>
<path d="M39.7082 355.107L39.021 354.026C38.7294 353.375 38.1915 352.866 37.5251 352.61C36.8588 352.355 36.1183 352.374 35.4658 352.663C34.8133 352.952 34.3021 353.488 34.0441 354.153C33.786 354.818 33.8022 355.558 34.0891 356.211L34.2845 356.911L34.5069 357.706C35.4072 357.592 36.2956 357.399 37.1614 357.127C37.164 357.127 37.1663 357.125 37.1681 357.124C37.8081 356.921 38.433 356.674 39.0379 356.383C39.0412 356.379 39.0445 356.379 39.0479 356.376C39.1827 356.312 39.3141 356.245 39.4488 356.177C39.4708 356.168 39.4922 356.156 39.5128 356.144C39.6205 356.09 39.7284 356.033 39.8329 355.975C39.9406 355.918 40.045 355.858 40.1461 355.794L39.7082 355.107Z" fill="#CACACA"/>
<path d="M32.9162 350.138C35.6502 350.138 37.8665 347.923 37.8665 345.191C37.8665 342.458 35.6502 340.243 32.9162 340.243C30.1823 340.243 27.9659 342.458 27.9659 345.191C27.9659 347.923 30.1823 350.138 32.9162 350.138Z" fill="#FFB6B6"/>
<path d="M40.0653 354.895C39.5193 353.987 38.8415 353.166 38.0541 352.457C37.5148 351.975 36.8168 351.709 36.0936 351.71H29.1202C28.7184 351.709 28.3208 351.792 27.952 351.951C27.5832 352.111 27.2511 352.344 26.9761 352.637C26.7011 352.93 26.4891 353.276 26.3532 353.654C26.2173 354.032 26.1604 354.433 26.186 354.834C26.2012 355.06 26.242 355.284 26.3074 355.501C26.3571 355.658 26.419 355.811 26.4926 355.959L26.8362 356.645C26.8632 356.656 26.8902 356.669 26.917 356.679C26.9237 356.683 26.9272 356.682 26.9305 356.686C27.0719 356.743 27.2136 356.8 27.3583 356.854C27.8324 357.035 28.316 357.19 28.807 357.319C29.5973 357.531 30.4041 357.676 31.2189 357.753C31.6939 357.797 32.169 357.821 32.6473 357.821C33.1224 357.821 33.5872 357.797 34.052 357.753C34.2037 357.74 34.3552 357.723 34.5069 357.706C35.4072 357.592 36.2956 357.399 37.1614 357.127C37.164 357.127 37.1663 357.125 37.1681 357.124C37.8081 356.921 38.4329 356.674 39.0379 356.383C39.0412 356.379 39.0445 356.379 39.0479 356.376C39.1826 356.312 39.3141 356.245 39.4488 356.177C39.4708 356.168 39.4922 356.156 39.5128 356.144C39.6205 356.09 39.7284 356.033 39.8329 355.975C39.9406 355.918 40.045 355.858 40.1461 355.794C40.254 355.736 40.355 355.672 40.4594 355.608C40.3315 355.356 40.2001 355.12 40.0653 354.895Z" fill="#CACACA"/>
<path d="M30.3835 352.612C29.7381 352.31 28.9995 352.276 28.3292 352.517C27.6588 352.758 27.1111 353.255 26.806 353.898L26.186 354.834L25.8896 355.282L25.4382 355.962C25.5325 356.012 25.6234 356.063 25.7179 356.113L25.8424 356.177C26.1322 356.326 26.4252 356.467 26.7285 356.598C26.762 356.615 26.7992 356.629 26.8362 356.645C26.8632 356.656 26.8902 356.669 26.917 356.679C26.9237 356.682 26.9272 356.682 26.9305 356.686C27.0719 356.743 27.2136 356.8 27.3583 356.854C27.8324 357.035 28.316 357.19 28.807 357.319C29.5973 357.531 30.4041 357.676 31.2189 357.753L31.4548 356.955L31.6839 356.194C31.9859 355.547 32.0186 354.806 31.7748 354.134C31.531 353.463 31.0306 352.915 30.3835 352.612Z" fill="#CACACA"/>
<path d="M27.7147 342.079C28.8459 342.858 30.1886 343.273 31.5624 343.267C31.0724 343.607 30.5145 343.836 29.9271 343.939C31.7538 344.331 33.6416 344.342 35.4726 343.971C35.8796 343.905 36.2722 343.771 36.6334 343.572C36.8134 343.472 36.9702 343.334 37.0937 343.169C37.2171 343.004 37.3045 342.815 37.35 342.614C37.4716 341.92 36.9301 341.289 36.3672 340.863C35.5055 340.222 34.5119 339.78 33.4584 339.57C32.4048 339.359 31.3176 339.386 30.2755 339.647C29.5811 339.786 28.9492 340.143 28.4713 340.666C28.2401 340.931 28.1005 341.265 28.0731 341.616C28.0458 341.967 28.1322 342.318 28.3195 342.616L27.7147 342.079Z" fill="#2F2E41"/>
<path d="M46.7084 338.05C45.9967 336.006 44.8474 334.142 43.3408 332.587C41.8341 331.033 40.0063 329.826 37.9848 329.05C35.9633 328.274 33.7968 327.948 31.6363 328.095C29.4759 328.242 27.3735 328.858 25.4759 329.901C23.5783 330.944 21.931 332.387 20.6491 334.131C19.3671 335.876 18.4813 337.878 18.0534 340C17.6254 342.122 17.6657 344.311 18.1714 346.415C18.6771 348.52 19.6361 350.488 20.9814 352.184C21.1126 352.353 21.2542 352.521 21.3957 352.683C21.4038 352.695 21.4128 352.706 21.4227 352.716C21.7716 353.117 22.1427 353.498 22.5343 353.858C22.6353 353.952 22.7398 354.05 22.8477 354.141C23.0497 354.322 23.2586 354.494 23.4775 354.659C23.5617 354.726 23.6459 354.794 23.7336 354.858C24.0738 355.117 24.4309 355.356 24.7947 355.588C24.801 355.588 24.8069 355.591 24.8115 355.595C24.916 355.659 25.0239 355.723 25.1316 355.784C25.2326 355.844 25.337 355.905 25.4382 355.962C25.5325 356.013 25.6234 356.063 25.7178 356.114L25.8424 356.178C26.1322 356.326 26.4252 356.467 26.7285 356.598C26.762 356.615 26.7992 356.629 26.8362 356.646C26.8632 356.656 26.8902 356.669 26.917 356.679C26.9237 356.683 26.9272 356.683 26.9304 356.686C27.0719 356.743 27.2135 356.8 27.3583 356.854C27.8323 357.035 28.3159 357.191 28.8069 357.319C29.5973 357.531 30.4041 357.676 31.2189 357.753C31.6939 357.797 32.1689 357.821 32.6473 357.821C33.1223 357.821 33.5872 357.797 34.052 357.753C34.2037 357.74 34.3552 357.723 34.5068 357.706C35.4072 357.592 36.2956 357.399 37.1614 357.127C37.1639 357.127 37.1663 357.125 37.1681 357.124C37.8081 356.921 38.4329 356.674 39.0379 356.383C39.0411 356.38 39.0444 356.38 39.0479 356.376C39.1826 356.312 39.314 356.245 39.4487 356.178C39.4708 356.168 39.4921 356.156 39.5127 356.144C39.6205 356.09 39.7284 356.033 39.8328 355.976C39.9406 355.918 40.045 355.858 40.146 355.794C40.2539 355.736 40.3549 355.672 40.4594 355.609C40.5133 355.575 40.5672 355.541 40.6211 355.508C40.6953 355.464 40.7625 355.42 40.8367 355.369C40.9377 355.305 41.0389 355.235 41.1364 355.164C41.2679 355.073 41.3993 354.979 41.5273 354.881C41.5704 354.853 41.612 354.823 41.6519 354.79C44.1536 352.89 45.9899 350.247 46.8981 347.24C47.8063 344.234 47.7398 341.017 46.7083 338.05L46.7084 338.05ZM41.1601 354.141C41.0724 354.211 40.9815 354.279 40.8907 354.339C40.7996 354.407 40.7121 354.471 40.6211 354.531C40.5436 354.585 40.4661 354.639 40.3854 354.689C40.3781 354.696 40.3701 354.701 40.3617 354.706C40.3044 354.747 40.2438 354.784 40.1865 354.821C40.1461 354.844 40.1057 354.871 40.0653 354.895C39.9473 354.969 39.8294 355.04 39.7082 355.107C39.6442 355.147 39.5768 355.184 39.5128 355.221C39.4892 355.235 39.4655 355.248 39.442 355.262C39.3376 355.319 39.2366 355.369 39.1354 355.423C39.1221 355.433 39.1051 355.437 39.0951 355.447C39.0888 355.447 39.0828 355.449 39.0782 355.454C38.9502 355.521 38.8188 355.585 38.6875 355.646C38.1817 355.889 37.6606 356.099 37.1276 356.275C37.0604 356.299 36.9896 356.326 36.9222 356.346C36.0631 356.618 35.1798 356.808 34.2844 356.912C34.1834 356.925 34.079 356.935 33.9746 356.945C33.5367 356.986 33.0954 357.006 32.6473 357.006C32.2497 357.006 31.8489 356.989 31.4547 356.955C30.6308 356.887 29.8146 356.745 29.0159 356.531C28.4079 356.373 27.8123 356.17 27.2338 355.925C27.2034 355.912 27.1731 355.901 27.1428 355.888C27.1091 355.875 27.0821 355.864 27.0519 355.851C27.0182 355.837 26.9912 355.824 26.9575 355.807C26.7385 355.713 26.5196 355.609 26.3074 355.501C26.277 355.484 26.2467 355.47 26.2164 355.454L26.0985 355.393C26.0278 355.356 25.957 355.319 25.8896 355.282C25.6639 355.161 25.4415 355.029 25.226 354.895C25.1451 354.844 25.0576 354.79 24.9767 354.737L24.916 354.696C24.7273 354.568 24.5388 354.44 24.3534 354.302C24.2287 354.208 24.1008 354.117 23.9795 354.019C23.7741 353.864 23.5752 353.7 23.3833 353.528C23.2821 353.444 23.1811 353.349 23.0869 353.262C22.7075 352.912 22.3487 352.542 22.0123 352.151C21.9011 352.023 21.7899 351.895 21.6854 351.76C21.6619 351.733 21.6417 351.706 21.618 351.676C19.8813 349.486 18.8366 346.829 18.6171 344.043C18.3976 341.257 19.0133 338.469 20.3857 336.034C21.7581 333.6 23.8249 331.629 26.3227 330.373C28.8204 329.117 31.6358 328.633 34.4097 328.983C37.1837 329.333 39.7906 330.501 41.8979 332.337C44.0051 334.174 45.5173 336.596 46.2415 339.295C46.9658 341.994 46.8692 344.848 45.9642 347.492C45.0592 350.136 43.3868 352.45 41.1602 354.141H41.1601Z" fill="#3F3D56"/>
<path d="M57.5537 265.355C52.3699 260.983 46.0265 258.211 39.2953 257.377C32.5642 256.543 25.7355 257.682 19.6403 260.656C13.5451 263.63 8.44619 268.31 4.96394 274.127C1.48169 279.945 -0.233702 286.648 0.0264944 293.422C0.286691 300.196 2.51126 306.748 6.4295 312.282C10.3477 317.815 15.7907 322.091 22.0961 324.589C28.4015 327.087 35.2974 327.7 41.9448 326.352C48.5921 325.005 54.7042 321.755 59.5374 316.999L102.455 353.193C103.109 353.742 103.953 354.009 104.804 353.937C105.654 353.865 106.441 353.458 106.992 352.807C107.543 352.155 107.813 351.312 107.743 350.462C107.673 349.612 107.269 348.824 106.619 348.271L106.614 348.267L63.6959 312.073C68.6817 304.922 70.8155 296.167 69.6793 287.525C68.5431 278.883 64.2188 270.976 57.5537 265.355ZM54.7869 308.588C51.4434 312.548 47 315.429 42.0186 316.865C37.0371 318.301 31.7414 318.229 26.8011 316.657C21.8607 315.086 17.4977 312.085 14.2637 308.035C11.0296 303.985 9.06986 299.067 8.63219 293.904C8.19452 288.741 9.29861 283.564 11.8048 279.028C14.311 274.492 18.1068 270.8 22.7122 268.42C27.3175 266.04 32.5256 265.078 37.6778 265.657C42.83 266.235 47.695 268.327 51.6574 271.669C56.9709 276.15 60.2857 282.557 60.8726 289.481C61.4595 296.404 59.2704 303.278 54.7869 308.588Z" fill="#3F3D56"/>
<path opacity="0.3" d="M17.8474 311.716C12.8185 307.474 9.5695 301.498 8.74544 294.973C7.92138 288.449 9.58255 281.853 13.3991 276.495C12.8979 277 12.4134 277.528 11.9455 278.08C9.72549 280.71 8.04544 283.751 7.00125 287.029C5.95707 290.308 5.56921 293.76 5.85981 297.188C6.15041 300.616 7.11379 303.954 8.69493 307.01C10.2761 310.066 12.444 312.781 15.075 315C17.706 317.218 20.7484 318.898 24.0287 319.941C27.309 320.985 30.7628 321.372 34.1929 321.082C37.6231 320.791 40.9624 319.829 44.0203 318.248C47.0781 316.668 49.7946 314.501 52.0146 311.872C52.4814 311.319 52.9209 310.753 53.3333 310.173C48.6915 314.834 42.4655 317.581 35.8916 317.866C29.3177 318.152 22.8766 315.957 17.8474 311.716Z" fill="black"/>
<path d="M144.076 354.546C144.411 354.137 144.653 353.66 144.784 353.147C144.914 352.635 144.931 352.1 144.832 351.58C144.734 351.061 144.522 350.569 144.213 350.14C143.904 349.711 143.504 349.355 143.042 349.097L135.22 317.095L129.513 318.916L137.96 350.699C137.578 351.504 137.504 352.42 137.752 353.275C138.001 354.13 138.555 354.864 139.309 355.338C140.062 355.812 140.964 355.993 141.843 355.847C142.722 355.702 143.516 355.239 144.076 354.546H144.076Z" fill="#FFB6B6"/>
<path d="M140.033 334.076L135.862 337.672L130.028 342.699L127.45 329.521L127.181 328.151L126.969 327.063L132.881 316.771L137.809 317.053L138.146 317.073L138.153 317.148L138.23 317.838L139.241 326.922L139.265 327.141L140.033 334.076Z" fill="#3F3D56"/>
<path d="M112.773 423.526L108.643 423.526L106.678 407.604L112.774 407.605L112.773 423.526Z" fill="#FFB6B6"/>
<path d="M113.827 427.527L100.51 427.527V427.358C100.51 425.984 101.056 424.667 102.028 423.695C103 422.724 104.318 422.178 105.693 422.178H105.693L113.827 422.178L113.827 427.527Z" fill="#2F2E41"/>
<path d="M155.893 423.863L151.763 423.862L149.798 407.941L155.894 407.941L155.893 423.863Z" fill="#FFB6B6"/>
<path d="M156.947 427.864L143.63 427.863V427.695C143.63 426.321 144.176 425.004 145.148 424.032C146.12 423.061 147.438 422.515 148.813 422.515H148.813L156.947 422.515L156.947 427.864Z" fill="#2F2E41"/>
<path d="M159.194 417.525L148.077 419.208L131.904 364.503L114.727 419.545L102.262 417.861L118.432 353.89V348.84L120.622 341.265L120.393 339.214L118.8 324.875L118.109 318.656L118.064 318.254C118.027 317.917 118.116 317.578 118.315 317.303C118.514 317.028 118.808 316.837 119.14 316.767L124.328 315.676H132.807L137.809 317.053L138.153 317.148L138.308 317.191L138.231 317.838L137.058 327.662L136.994 328.201L135.862 337.672L135.613 339.75C145.382 346.82 145.719 353.89 145.719 353.89L159.194 417.525Z" fill="#007AFF"/>
<path d="M127.543 311.417C132.112 311.417 135.817 307.714 135.817 303.147C135.817 298.58 132.112 294.878 127.543 294.878C122.973 294.878 119.269 298.58 119.269 303.147C119.269 307.714 122.973 311.417 127.543 311.417Z" fill="#FFB6B6"/>
<path d="M136.233 337.849L119.865 339.989L120.171 342.325L136.539 340.186L136.233 337.849Z" fill="#3F3D56"/>
<path d="M97.9108 340.693C98.0673 340.794 98.2156 340.908 98.3543 341.032L114.543 336.908L115.648 333.004L121.76 333.9L120.476 341C120.373 341.574 120.086 342.098 119.658 342.495C119.231 342.892 118.687 343.139 118.107 343.2L99.2041 345.19C98.896 345.838 98.3977 346.377 97.7756 346.735C97.1534 347.094 96.4368 347.254 95.7211 347.196C95.0054 347.137 94.3245 346.862 93.769 346.407C93.2135 345.953 92.8097 345.339 92.6113 344.65C92.4129 343.96 92.4293 343.226 92.6583 342.546C92.8874 341.866 93.3182 341.271 93.8935 340.842C94.4688 340.412 95.1614 340.168 95.879 340.141C96.5966 340.115 97.3053 340.307 97.9108 340.693Z" fill="#FFB6B6"/>
<path d="M122.812 318.875L119.948 316.686C119.174 316.393 118.113 317.227 117.927 318.033L113.885 334.531L122.306 340.591L123.485 338.74L122.812 318.875Z" fill="#3F3D56"/>
<g opacity="0.2">
<path opacity="0.2" d="M139.241 326.922C138.527 327.205 137.798 327.452 137.058 327.662C136.822 327.733 136.58 327.8 136.341 327.864C134.764 328.302 133.144 328.564 131.51 328.646C130.806 328.675 130.102 328.656 129.401 328.588C128.649 328.513 127.906 328.367 127.181 328.151C127.157 328.144 127.13 328.137 127.107 328.13C125.601 327.703 124.22 326.919 123.081 325.844C122.827 325.597 122.589 325.332 122.37 325.053C121.741 324.283 121.28 323.39 121.015 322.432C120.751 321.474 120.689 320.471 120.834 319.488C120.862 319.309 120.901 319.133 120.949 318.959C121.076 318.485 121.244 318.023 121.451 317.579C121.542 317.37 121.643 317.164 121.751 316.962L125.557 315.676H132.807L137.809 317.053L138.146 317.074L138.153 317.148L138.308 317.191L138.231 317.838L139.241 326.922Z" fill="black"/>
</g>
<path d="M121.202 296.301C119.655 296.111 117.957 296.246 116.751 297.233C115.545 298.22 115.156 300.272 116.298 301.333C117.309 302.272 118.889 302.051 120.243 302.318C121.41 302.58 122.455 303.224 123.211 304.15C123.967 305.075 124.391 306.227 124.415 307.421C124.395 310.847 121.106 313.441 120.515 316.815C120.111 319.118 121.083 321.542 122.763 323.169C124.443 324.795 126.753 325.674 129.08 325.913C131.407 326.151 133.76 325.787 136.022 325.189C138.293 324.589 140.528 323.738 142.434 322.365C144.339 320.992 145.901 319.057 146.513 316.79C147.125 314.524 146.686 311.925 145.109 310.185C143.304 308.192 140.3 307.506 138.739 305.318C136.988 302.864 137.636 299.37 136.219 296.709C135.273 294.933 133.482 293.722 131.573 293.084C129.664 292.446 127.625 292.32 125.613 292.258C124.555 292.225 123.465 292.214 122.48 292.6C121.495 292.985 120.628 293.863 120.577 294.92C120.526 295.976 121.202 296.301 121.202 296.301Z" fill="#2F2E41"/>
<path d="M198.663 428H70.3138C70.2245 428 70.1388 427.965 70.0756 427.901C70.0124 427.838 69.9769 427.753 69.9769 427.663C69.9769 427.574 70.0124 427.488 70.0756 427.425C70.1388 427.362 70.2245 427.327 70.3138 427.327H198.663C198.752 427.327 198.838 427.362 198.901 427.425C198.964 427.488 199 427.574 199 427.663C199 427.753 198.964 427.838 198.901 427.901C198.838 427.965 198.752 428 198.663 428Z" fill="#CACACA"/>
</g>
<path d="M162.65 343.2C142.35 343.2 124.267 338.183 108.4 328.15C92.5333 318.117 80.05 303.65 70.95 284.75C62.0833 265.617 57.65 242.867 57.65 216.5C57.65 190.133 62.0833 167.5 70.95 148.6C80.05 129.467 92.5333 114.883 108.4 104.85C124.267 94.8167 142.35 89.8 162.65 89.8C182.95 89.8 201.033 94.8167 216.9 104.85C232.767 114.883 245.133 129.467 254 148.6C263.1 167.5 267.65 190.133 267.65 216.5C267.65 242.867 263.1 265.617 254 284.75C245.133 303.65 232.767 318.117 216.9 328.15C201.033 338.183 182.95 343.2 162.65 343.2ZM162.65 295.25C177.583 295.25 189.25 288.833 197.65 276C206.283 263.167 210.6 243.333 210.6 216.5C210.6 189.667 206.283 169.833 197.65 157C189.25 144.167 177.583 137.75 162.65 137.75C147.95 137.75 136.283 144.167 127.65 157C119.25 169.833 115.05 189.667 115.05 216.5C115.05 243.333 119.25 263.167 127.65 276C136.283 288.833 147.95 295.25 162.65 295.25ZM387.648 94V339H330.948V139.5H281.948V94H387.648Z" fill="url(#paint0_linear)"/>
<defs>
<linearGradient id="paint0_linear" x1="230.5" y1="0" x2="230.5" y2="427" gradientUnits="userSpaceOnUse">
<stop stop-opacity="0.39"/>
<stop offset="1" stop-color="white" stop-opacity="0"/>
</linearGradient>
<clipPath id="clip0">
<rect width="199" height="222" fill="white" transform="translate(0 206)"/>
</clipPath>
</defs>
</svg>
