<svg width="454" height="444" viewBox="0 0 454 444" fill="none" xmlns="http://www.w3.org/2000/svg">
<path d="M130.65 343.2C110.35 343.2 92.2667 338.183 76.4 328.15C60.5333 318.117 48.05 303.65 38.95 284.75C30.0833 265.617 25.65 242.867 25.65 216.5C25.65 190.133 30.0833 167.5 38.95 148.6C48.05 129.467 60.5333 114.883 76.4 104.85C92.2667 94.8167 110.35 89.8 130.65 89.8C150.95 89.8 169.033 94.8167 184.9 104.85C200.767 114.883 213.133 129.467 222 148.6C231.1 167.5 235.65 190.133 235.65 216.5C235.65 242.867 231.1 265.617 222 284.75C213.133 303.65 200.767 318.117 184.9 328.15C169.033 338.183 150.95 343.2 130.65 343.2ZM130.65 295.25C145.583 295.25 157.25 288.833 165.65 276C174.283 263.167 178.6 243.333 178.6 216.5C178.6 189.667 174.283 169.833 165.65 157C157.25 144.167 145.583 137.75 130.65 137.75C115.95 137.75 104.283 144.167 95.65 157C87.25 169.833 83.05 189.667 83.05 216.5C83.05 243.333 87.25 263.167 95.65 276C104.283 288.833 115.95 295.25 130.65 295.25ZM374.231 193.75C395.698 197.25 412.148 205.3 423.581 217.9C435.014 230.267 440.731 245.667 440.731 264.1C440.731 278.333 436.998 291.517 429.531 303.65C422.064 315.55 410.631 325.117 395.231 332.35C380.064 339.583 361.398 343.2 339.231 343.2C321.964 343.2 304.931 340.983 288.131 336.55C271.564 331.883 257.448 325.35 245.781 316.95L267.831 273.55C277.164 280.55 287.898 286.033 300.031 290C312.398 293.733 324.998 295.6 337.831 295.6C352.064 295.6 363.264 292.917 371.431 287.55C379.598 281.95 383.681 274.133 383.681 264.1C383.681 244.033 368.398 234 337.831 234H311.931V196.55L362.331 139.5H258.031V94H429.531V130.75L374.231 193.75Z" fill="url(#paint0_linear)"/>
<g clip-path="url(#clip0)">
<path d="M244.566 330.279L245.478 323.034C245.801 320.459 247.143 318.117 249.208 316.523C251.273 314.93 253.891 314.215 256.487 314.536C259.083 314.857 261.444 316.188 263.05 318.236C264.657 320.284 265.378 322.881 265.054 325.456L264.143 332.702C264.099 333.047 263.918 333.362 263.641 333.576C263.364 333.79 263.012 333.886 262.664 333.843L245.717 331.746C245.368 331.702 245.052 331.523 244.836 331.248C244.62 330.973 244.523 330.625 244.566 330.279Z" fill="#2F2E41"/>
<path d="M252.684 332.441C256.678 332.441 259.916 329.229 259.916 325.267C259.916 321.306 256.678 318.094 252.684 318.094C248.69 318.094 245.452 321.306 245.452 325.267C245.452 329.229 248.69 332.441 252.684 332.441Z" fill="#FFB8B8"/>
<path d="M243.089 323.327C243.347 321.291 244.41 319.44 246.042 318.18C247.675 316.919 249.745 316.353 251.798 316.605L253.259 316.786C255.311 317.042 257.178 318.095 258.448 319.715C259.719 321.334 260.29 323.387 260.036 325.424L260.017 325.569L256.93 325.187L256.245 322.132L255.666 325.03L254.071 324.833L253.725 323.291L253.433 324.754L243.071 323.472L243.089 323.327Z" fill="#2F2E41"/>
<path d="M217.313 350.856C217.534 351.286 217.847 351.663 218.231 351.961C218.615 352.258 219.06 352.468 219.534 352.576C220.009 352.685 220.502 352.688 220.978 352.587C221.454 352.486 221.902 352.283 222.291 351.991L228.859 355.808L232.171 352.414L222.819 347.154C222.282 346.539 221.536 346.141 220.723 346.035C219.91 345.929 219.087 346.123 218.408 346.579C217.729 347.035 217.243 347.723 217.041 348.511C216.839 349.299 216.936 350.134 217.313 350.856Z" fill="#FFB8B8"/>
<path d="M238.841 357.714C233.996 357.714 225.47 355.563 224.998 355.442L224.849 355.405L226.19 348.666L239.213 351.217L246.288 341.335L254.41 340.516L254.183 340.812C254.078 340.95 243.608 354.621 241.978 356.915C241.567 357.493 240.392 357.714 238.841 357.714Z" fill="#3F3D56"/>
<path d="M240.14 383.007L239.946 382.915C239.905 382.895 235.788 380.909 233.656 377.032C231.534 373.173 241.468 356.804 242.163 355.668L242.173 350.47L245.746 340.9L250.304 338.345L246.391 347.4L240.14 383.007Z" fill="#3F3D56"/>
<path d="M235.574 438.88L231.219 438.88L229.147 422.216L235.575 422.216L235.574 438.88Z" fill="#FFB8B8"/>
<path d="M236.685 443.068L222.641 443.067V442.891C222.641 441.453 223.217 440.074 224.242 439.057C225.267 438.04 226.657 437.469 228.107 437.469H228.108L236.685 437.469L236.685 443.068Z" fill="#2F2E41"/>
<path d="M282.358 435.094L278.219 436.439L271.018 421.244L277.127 419.259L282.358 435.094Z" fill="#FFB8B8"/>
<path d="M284.728 438.73L271.382 443.068L271.327 442.9C270.875 441.534 270.99 440.045 271.645 438.762C272.3 437.48 273.442 436.507 274.819 436.059L274.819 436.059L282.971 433.41L284.728 438.73Z" fill="#2F2E41"/>
<path d="M273.925 432.369L261.508 411.809L251.027 389.842L241.595 409.246L237.848 434.377L224.708 434.558L224.759 434.355L244.868 355.102L260.617 357.435L259.9 367.747L260.327 368.349C263.885 373.362 267.563 378.545 265.453 384.132L271.434 401.747L284.673 431.077L273.925 432.369Z" fill="#2F2E41"/>
<path d="M245.588 372.278C243.306 372.278 240.702 369.694 242.053 365.281L241.965 365.218L245.209 351.001C242.378 346.984 246.111 343.67 246.461 343.373L248.243 340.192L256.105 335.247L260.083 368.03L260.024 368.086C257.151 370.812 247.502 372.278 245.588 372.278Z" fill="#007AFF"/>
<path d="M261.689 379.676C261.376 379.68 261.064 379.648 260.76 379.578C260.454 379.502 259.959 379.116 259.194 376.646C256.153 366.825 252.563 337.276 255.172 334.384L255.231 334.318L259.514 335.026C259.87 334.766 261.738 333.472 263.462 333.697C263.817 333.741 264.159 333.857 264.467 334.038C264.775 334.218 265.042 334.46 265.252 334.747L265.282 334.785L266.646 354.038L271.645 376.695L271.525 376.749C271.234 376.881 264.993 379.676 261.689 379.676Z" fill="#3F3D56"/>
<path d="M258.808 372.15C259.295 372.134 259.772 372.013 260.207 371.794C260.641 371.575 261.021 371.264 261.321 370.884C261.621 370.503 261.834 370.062 261.943 369.591C262.053 369.121 262.057 368.632 261.956 368.16L268.225 363.876L266.53 359.462L257.762 365.634C256.973 365.856 256.294 366.357 255.852 367.043C255.411 367.728 255.238 368.55 255.367 369.353C255.496 370.157 255.918 370.885 256.552 371.4C257.186 371.916 257.989 372.183 258.808 372.15Z" fill="#FFB8B8"/>
<path d="M266.156 367.308L260.572 363.246L268.422 352.629L262.398 342.084L265.093 334.44L265.267 334.769C265.348 334.923 273.393 350.124 274.796 352.56C276.256 355.094 266.663 366.698 266.254 367.19L266.156 367.308Z" fill="#3F3D56"/>
<path d="M140.539 415.097L135.786 413.111L132.525 389.478H89.1062L85.5721 413.015L81.3199 415.124C81.1164 415.225 80.9533 415.391 80.8569 415.595C80.7605 415.799 80.7365 416.03 80.7887 416.25C80.841 416.469 80.9665 416.665 81.1449 416.805C81.3232 416.945 81.544 417.021 81.7715 417.021H140.147C140.38 417.021 140.606 416.941 140.786 416.795C140.967 416.648 141.091 416.444 141.137 416.218C141.183 415.991 141.149 415.756 141.04 415.551C140.931 415.347 140.754 415.186 140.539 415.097Z" fill="#E6E6E6"/>
<path d="M217.697 392.623H4.41083C3.29178 392.62 2.21942 392.177 1.42901 391.392C0.638609 390.606 0.19471 389.541 0.194702 388.431V358.599H221.913V388.431C221.913 389.541 221.469 390.606 220.679 391.392C219.889 392.177 218.816 392.62 217.697 392.623Z" fill="#CCCCCC"/>
<path d="M222.136 372.699H0V245.053C0.00156038 243.713 0.538757 242.429 1.49374 241.482C2.44872 240.534 3.7435 240.002 5.09403 240H217.042C218.393 240.002 219.688 240.534 220.643 241.482C221.598 242.429 222.135 243.713 222.136 245.053V372.699Z" fill="#3F3D56"/>
<path d="M208.869 363.434H13.2673C12.2262 363.433 11.228 363.022 10.4917 362.292C9.75551 361.562 9.34138 360.572 9.34021 359.539V253.16C9.34137 252.127 9.75549 251.137 10.4917 250.407C11.2279 249.676 12.2261 249.265 13.2673 249.264H208.869C209.91 249.265 210.908 249.676 211.645 250.407C212.381 251.137 212.795 252.127 212.796 253.16V359.539C212.795 360.572 212.381 361.562 211.645 362.292C210.908 363.022 209.91 363.433 208.869 363.434Z" fill="white"/>
<path d="M165.925 417.268H56.0134C55.9008 417.27 55.7906 417.236 55.6999 417.169C55.6092 417.103 55.5432 417.009 55.5121 416.902C55.4926 416.829 55.4904 416.752 55.5054 416.678C55.5205 416.604 55.5525 416.534 55.599 416.474C55.6455 416.414 55.7052 416.366 55.7735 416.333C55.8419 416.299 55.917 416.282 55.9932 416.282H165.884C166.003 416.278 166.119 416.313 166.215 416.383C166.311 416.453 166.379 416.553 166.41 416.667C166.426 416.739 166.426 416.814 166.409 416.886C166.392 416.958 166.359 417.025 166.313 417.083C166.266 417.141 166.207 417.187 166.14 417.219C166.073 417.251 165.999 417.268 165.925 417.268Z" fill="#CCCCCC"/>
<path d="M206.781 266.463H159.554V302.25H206.781V266.463Z" fill="#F2F2F2"/>
<path d="M204.434 268.241H161.901V300.472H204.434V268.241Z" fill="white"/>
<path d="M183.914 292.148C183.92 292.148 183.925 292.148 183.931 292.148C186.81 291.999 189.524 290.767 191.52 288.704C193.517 286.641 194.646 283.901 194.678 281.041C194.711 278.182 193.644 275.417 191.694 273.31C189.745 271.203 187.06 269.911 184.185 269.698C184.149 269.695 184.114 269.7 184.08 269.711C184.046 269.723 184.015 269.741 183.989 269.765C183.963 269.789 183.942 269.818 183.928 269.85C183.913 269.882 183.906 269.916 183.905 269.951L183.657 291.889C183.657 291.957 183.684 292.022 183.732 292.071C183.78 292.12 183.845 292.148 183.914 292.148Z" fill="#007AFF"/>
<path d="M175.021 273.326C175.109 273.327 175.193 273.362 175.255 273.425L182.869 281.148C182.899 281.179 182.924 281.216 182.94 281.256C182.956 281.296 182.964 281.339 182.964 281.382L182.845 291.88C182.845 291.925 182.835 291.969 182.816 292.01C182.798 292.051 182.771 292.088 182.737 292.119C182.704 292.149 182.664 292.173 182.621 292.188C182.578 292.203 182.532 292.208 182.486 292.205C180.369 292.048 178.338 291.308 176.622 290.069C174.905 288.83 173.571 287.141 172.769 285.192C171.967 283.242 171.729 281.109 172.082 279.033C172.435 276.956 173.365 275.019 174.767 273.438C174.797 273.404 174.834 273.376 174.876 273.357C174.917 273.338 174.962 273.327 175.008 273.326C175.012 273.326 175.016 273.326 175.021 273.326Z" fill="#E6E6E6"/>
<path d="M182.763 269.608C182.848 269.609 182.929 269.642 182.99 269.701C183.023 269.732 183.049 269.769 183.067 269.811C183.085 269.852 183.093 269.897 183.093 269.942L182.986 279.413C182.985 279.479 182.965 279.542 182.928 279.596C182.89 279.65 182.838 279.691 182.777 279.716C182.716 279.74 182.649 279.746 182.585 279.732C182.52 279.719 182.462 279.687 182.416 279.64L175.772 272.901C175.74 272.869 175.715 272.831 175.699 272.789C175.683 272.747 175.675 272.702 175.677 272.658C175.679 272.613 175.689 272.569 175.709 272.528C175.728 272.488 175.756 272.452 175.789 272.422C177.722 270.735 180.171 269.744 182.742 269.609C182.749 269.608 182.756 269.608 182.763 269.608Z" fill="black"/>
<path d="M179.34 296.697C179.335 297.097 179.212 297.486 178.984 297.816C178.756 298.146 178.435 298.401 178.062 298.55C177.688 298.699 177.278 298.734 176.884 298.652C176.489 298.569 176.129 298.373 175.847 298.087C175.565 297.802 175.375 297.439 175.301 297.047C175.227 296.654 175.272 296.248 175.43 295.881C175.589 295.513 175.853 295.201 176.191 294.983C176.528 294.764 176.923 294.65 177.326 294.655C177.866 294.661 178.381 294.88 178.759 295.263C179.136 295.646 179.345 296.162 179.34 296.697Z" fill="black"/>
<path d="M185.159 296.762C185.155 297.162 185.031 297.551 184.803 297.881C184.576 298.21 184.255 298.466 183.881 298.615C183.507 298.763 183.097 298.799 182.703 298.716C182.308 298.634 181.948 298.438 181.666 298.152C181.384 297.866 181.194 297.504 181.12 297.111C181.046 296.719 181.091 296.313 181.249 295.945C181.408 295.578 181.672 295.265 182.01 295.047C182.347 294.829 182.742 294.715 183.145 294.719C183.685 294.726 184.2 294.945 184.578 295.328C184.956 295.711 185.164 296.226 185.159 296.762Z" fill="#007AFF"/>
<path d="M190.978 296.827C190.974 297.226 190.85 297.616 190.622 297.945C190.395 298.275 190.074 298.53 189.7 298.679C189.326 298.828 188.916 298.863 188.522 298.781C188.128 298.699 187.767 298.502 187.485 298.217C187.204 297.931 187.014 297.569 186.94 297.176C186.865 296.783 186.91 296.378 187.069 296.01C187.227 295.643 187.492 295.33 187.829 295.112C188.166 294.894 188.562 294.779 188.964 294.784C189.504 294.791 190.02 295.009 190.397 295.392C190.775 295.775 190.984 296.291 190.978 296.827Z" fill="#E6E6E6"/>
<path d="M206.284 307.883H159.057V343.67H206.284V307.883Z" fill="#F2F2F2"/>
<path d="M203.937 309.661H161.403V341.892H203.937V309.661Z" fill="white"/>
<path d="M168.62 320.254C169.595 320.254 170.386 319.47 170.386 318.503C170.386 317.535 169.595 316.751 168.62 316.751C167.645 316.751 166.854 317.535 166.854 318.503C166.854 319.47 167.645 320.254 168.62 320.254Z" fill="#3F3D56"/>
<path d="M196.995 317.139C197.153 317.139 197.309 317.17 197.454 317.229C197.6 317.289 197.732 317.376 197.843 317.487C197.955 317.597 198.043 317.728 198.104 317.872C198.164 318.017 198.195 318.171 198.195 318.327C198.195 318.484 198.164 318.638 198.104 318.782C198.043 318.927 197.955 319.058 197.843 319.168C197.732 319.278 197.6 319.366 197.454 319.425C197.309 319.485 197.153 319.516 196.995 319.515H178.421C178.104 319.515 177.799 319.39 177.574 319.167C177.35 318.945 177.224 318.642 177.224 318.327C177.224 318.012 177.35 317.71 177.574 317.487C177.799 317.265 178.104 317.139 178.421 317.139H196.995ZM196.995 316.848H178.421C178.225 316.848 178.031 316.886 177.85 316.96C177.669 317.035 177.504 317.143 177.366 317.281C177.227 317.418 177.117 317.581 177.042 317.761C176.967 317.94 176.928 318.133 176.928 318.327C176.928 318.522 176.967 318.714 177.042 318.894C177.117 319.073 177.227 319.237 177.366 319.374C177.504 319.511 177.669 319.62 177.85 319.694C178.031 319.769 178.225 319.807 178.421 319.806H196.995C197.191 319.807 197.385 319.769 197.567 319.694C197.748 319.62 197.912 319.511 198.051 319.374C198.19 319.237 198.3 319.073 198.375 318.894C198.45 318.714 198.489 318.522 198.489 318.327C198.489 318.133 198.45 317.94 198.375 317.761C198.3 317.581 198.19 317.418 198.051 317.281C197.912 317.143 197.748 317.035 197.567 316.96C197.385 316.886 197.191 316.848 196.995 316.848Z" fill="#3F3D56"/>
<path d="M189.666 319.806H175.684C175.289 319.806 174.909 319.65 174.63 319.373C174.35 319.096 174.193 318.72 174.193 318.327C174.193 317.935 174.35 317.559 174.63 317.282C174.909 317.004 175.289 316.848 175.684 316.848H189.666C190.062 316.848 190.441 317.004 190.721 317.282C191 317.559 191.157 317.935 191.157 318.327C191.157 318.72 191 319.096 190.721 319.373C190.441 319.65 190.062 319.806 189.666 319.806Z" fill="black"/>
<path d="M168.62 327.528C169.595 327.528 170.386 326.744 170.386 325.777C170.386 324.809 169.595 324.025 168.62 324.025C167.645 324.025 166.854 324.809 166.854 325.777C166.854 326.744 167.645 327.528 168.62 327.528Z" fill="#3F3D56"/>
<path d="M196.995 324.413C197.153 324.413 197.309 324.444 197.454 324.503C197.6 324.563 197.732 324.65 197.843 324.761C197.955 324.871 198.043 325.002 198.104 325.146C198.164 325.291 198.195 325.445 198.195 325.601C198.195 325.758 198.164 325.912 198.104 326.056C198.043 326.201 197.955 326.332 197.843 326.442C197.732 326.552 197.6 326.64 197.454 326.699C197.309 326.759 197.153 326.79 196.995 326.789H178.421C178.104 326.789 177.799 326.664 177.574 326.441C177.35 326.219 177.224 325.916 177.224 325.601C177.224 325.286 177.35 324.984 177.574 324.761C177.799 324.539 178.104 324.413 178.421 324.413H196.995ZM196.995 324.122H178.421C178.026 324.122 177.647 324.278 177.367 324.556C177.087 324.833 176.93 325.209 176.93 325.601C176.93 325.994 177.087 326.37 177.367 326.647C177.647 326.924 178.026 327.08 178.421 327.08H196.995C197.391 327.08 197.77 326.924 198.05 326.647C198.329 326.37 198.486 325.994 198.486 325.601C198.486 325.209 198.329 324.833 198.05 324.556C197.77 324.278 197.391 324.122 196.995 324.122Z" fill="#3F3D56"/>
<path d="M194.946 327.08H175.684C175.289 327.08 174.909 326.924 174.63 326.647C174.35 326.37 174.193 325.994 174.193 325.601C174.193 325.209 174.35 324.833 174.63 324.556C174.909 324.278 175.289 324.122 175.684 324.122H194.946C195.342 324.122 195.721 324.278 196.001 324.556C196.28 324.833 196.437 325.209 196.437 325.601C196.437 325.994 196.28 326.37 196.001 326.647C195.721 326.924 195.342 327.08 194.946 327.08Z" fill="#007AFF"/>
<path d="M168.62 334.802C169.595 334.802 170.386 334.018 170.386 333.05C170.386 332.083 169.595 331.299 168.62 331.299C167.645 331.299 166.854 332.083 166.854 333.05C166.854 334.018 167.645 334.802 168.62 334.802Z" fill="#3F3D56"/>
<path d="M196.995 331.687C197.153 331.687 197.309 331.718 197.454 331.777C197.6 331.837 197.732 331.924 197.843 332.035C197.955 332.145 198.043 332.276 198.104 332.42C198.164 332.564 198.195 332.719 198.195 332.875C198.195 333.031 198.164 333.186 198.104 333.33C198.043 333.475 197.955 333.606 197.843 333.716C197.732 333.826 197.6 333.914 197.454 333.973C197.309 334.033 197.153 334.063 196.995 334.063H178.421C178.104 334.063 177.799 333.938 177.574 333.715C177.35 333.492 177.224 333.19 177.224 332.875C177.224 332.56 177.35 332.258 177.574 332.035C177.799 331.812 178.104 331.687 178.421 331.687H196.995ZM196.995 331.396H178.421C178.026 331.396 177.647 331.552 177.367 331.829C177.087 332.107 176.93 332.483 176.93 332.875C176.93 333.267 177.087 333.644 177.367 333.921C177.647 334.198 178.026 334.354 178.421 334.354H196.995C197.391 334.354 197.77 334.198 198.05 333.921C198.329 333.644 198.486 333.267 198.486 332.875C198.486 332.483 198.329 332.107 198.05 331.829C197.77 331.552 197.391 331.396 196.995 331.396Z" fill="#3F3D56"/>
<path d="M183.506 334.354H175.684C175.488 334.354 175.294 334.316 175.113 334.242C174.932 334.168 174.767 334.059 174.628 333.922C174.49 333.784 174.38 333.621 174.305 333.442C174.23 333.262 174.191 333.07 174.191 332.875C174.191 332.681 174.23 332.488 174.305 332.309C174.38 332.129 174.49 331.966 174.628 331.829C174.767 331.691 174.932 331.582 175.113 331.508C175.294 331.434 175.488 331.396 175.684 331.396H183.506C183.901 331.397 184.28 331.553 184.559 331.83C184.838 332.108 184.995 332.483 184.995 332.875C184.995 333.267 184.838 333.643 184.559 333.92C184.28 334.198 183.901 334.354 183.506 334.354Z" fill="#DDDFF1"/>
<path d="M148.617 272.794H16.6727V339.867H148.617V272.794Z" fill="#F2F2F2"/>
<path d="M144.219 276.127H21.0709V336.534H144.219V276.127Z" fill="white"/>
<path d="M128.946 327.319H39.1734C39.0989 327.319 39.0274 327.289 38.9747 327.237C38.9221 327.185 38.8925 327.114 38.8925 327.04V284.361C38.8925 284.287 38.9221 284.216 38.9747 284.164C39.0274 284.112 39.0989 284.082 39.1734 284.082C39.2479 284.082 39.3194 284.112 39.3721 284.164C39.4248 284.216 39.4544 284.287 39.4544 284.361V326.761H128.946C129.02 326.761 129.092 326.791 129.145 326.843C129.197 326.895 129.227 326.966 129.227 327.04C129.227 327.114 129.197 327.185 129.145 327.237C129.092 327.289 129.02 327.319 128.946 327.319Z" fill="#3F3D56"/>
<path d="M58.3539 324.253H50.1887C49.9676 324.253 49.7556 324.166 49.5993 324.011C49.443 323.856 49.355 323.646 49.3547 323.426V312.262C49.355 312.043 49.443 311.832 49.5993 311.677C49.7556 311.522 49.9676 311.435 50.1887 311.435H58.3539C58.575 311.435 58.787 311.522 58.9433 311.677C59.0996 311.832 59.1876 312.043 59.1879 312.262V323.426C59.1876 323.646 59.0996 323.856 58.9433 324.011C58.787 324.166 58.575 324.253 58.3539 324.253Z" fill="black"/>
<path d="M73.244 324.253H65.0789C64.8578 324.253 64.6458 324.166 64.4894 324.011C64.3331 323.856 64.2451 323.646 64.2449 323.426V301.672C64.2451 301.453 64.3331 301.243 64.4894 301.088C64.6458 300.933 64.8578 300.845 65.0789 300.845H73.244C73.4651 300.845 73.6771 300.933 73.8334 301.088C73.9898 301.243 74.0777 301.453 74.078 301.672V323.426C74.0777 323.646 73.9898 323.856 73.8334 324.011C73.6771 324.166 73.4651 324.253 73.244 324.253Z" fill="black"/>
<path d="M88.1343 324.253H79.9691C79.748 324.253 79.536 324.166 79.3797 324.011C79.2233 323.856 79.1354 323.646 79.1351 323.426V312.262C79.1354 312.043 79.2233 311.832 79.3797 311.677C79.536 311.522 79.748 311.435 79.9691 311.435H88.1343C88.3554 311.435 88.5674 311.522 88.7237 311.677C88.88 311.832 88.968 312.043 88.9683 312.262V323.426C88.968 323.646 88.88 323.856 88.7237 324.011C88.5674 324.166 88.3554 324.253 88.1343 324.253Z" fill="black"/>
<path d="M103.024 324.253H94.8593C94.6432 324.258 94.4341 324.177 94.2778 324.029C94.1215 323.881 94.0307 323.678 94.0253 323.464V297.455C94.0307 297.241 94.1215 297.037 94.2778 296.889C94.4341 296.741 94.6432 296.661 94.8593 296.665H103.024C103.24 296.661 103.45 296.741 103.606 296.889C103.762 297.037 103.853 297.241 103.858 297.455V323.464C103.853 323.678 103.762 323.881 103.606 324.029C103.45 324.177 103.24 324.258 103.024 324.253Z" fill="black"/>
<path d="M117.915 324.253H109.749C109.528 324.253 109.316 324.166 109.16 324.011C109.004 323.856 108.916 323.646 108.915 323.426V289.968C108.916 289.749 109.004 289.539 109.16 289.384C109.316 289.229 109.528 289.141 109.749 289.141H117.915C118.136 289.141 118.348 289.229 118.504 289.384C118.66 289.539 118.748 289.749 118.749 289.968V323.426C118.748 323.646 118.66 323.856 118.504 324.011C118.348 324.166 118.136 324.253 117.915 324.253Z" fill="black"/>
<path d="M54.2713 308.091C55.2022 308.091 55.9569 307.342 55.9569 306.419C55.9569 305.495 55.2022 304.747 54.2713 304.747C53.3403 304.747 52.5856 305.495 52.5856 306.419C52.5856 307.342 53.3403 308.091 54.2713 308.091Z" fill="#3F3D56"/>
<path d="M69.1615 297.223C70.0925 297.223 70.8472 296.474 70.8472 295.551C70.8472 294.627 70.0925 293.878 69.1615 293.878C68.2305 293.878 67.4758 294.627 67.4758 295.551C67.4758 296.474 68.2305 297.223 69.1615 297.223Z" fill="#3F3D56"/>
<path d="M84.0516 308.091C84.9826 308.091 85.7373 307.342 85.7373 306.419C85.7373 305.495 84.9826 304.747 84.0516 304.747C83.1207 304.747 82.366 305.495 82.366 306.419C82.366 307.342 83.1207 308.091 84.0516 308.091Z" fill="#3F3D56"/>
<path d="M98.9419 291.928C99.8729 291.928 100.628 291.179 100.628 290.256C100.628 289.332 99.8729 288.584 98.9419 288.584C98.0109 288.584 97.2562 289.332 97.2562 290.256C97.2562 291.179 98.0109 291.928 98.9419 291.928Z" fill="#3F3D56"/>
<path d="M113.832 285.797C114.763 285.797 115.518 285.049 115.518 284.125C115.518 283.202 114.763 282.453 113.832 282.453C112.901 282.453 112.146 283.202 112.146 284.125C112.146 285.049 112.901 285.797 113.832 285.797Z" fill="#3F3D56"/>
<path d="M84.0871 306.793L69.1616 295.704L54.4397 306.642L54.1029 306.196L69.1616 295.008L84.0161 306.044L98.7777 290.021L98.8367 289.997L113.727 284.047L113.937 284.563L99.106 290.491L84.0871 306.793Z" fill="#007AFF"/>
<path d="M306.674 444H182.578C182.491 444 182.408 443.966 182.347 443.905C182.286 443.845 182.252 443.763 182.252 443.677C182.252 443.591 182.286 443.509 182.347 443.448C182.408 443.388 182.491 443.354 182.578 443.354H306.674C306.761 443.354 306.844 443.388 306.905 443.448C306.966 443.509 307 443.591 307 443.677C307 443.763 306.966 443.845 306.905 443.905C306.844 443.966 306.761 444 306.674 444Z" fill="#CCCCCC"/>
</g>
<defs>
<linearGradient id="paint0_linear" x1="233" y1="0" x2="233" y2="427" gradientUnits="userSpaceOnUse">
<stop stop-opacity="0.39"/>
<stop offset="1" stop-color="white" stop-opacity="0"/>
</linearGradient>
<clipPath id="clip0">
<rect width="307" height="204" fill="white" transform="translate(0 240)"/>
</clipPath>
</defs>
</svg>
